<?xml version="1.0" encoding="UTF-8"?>
<svg width="795px" height="890px" viewBox="0 0 795 890" version="1.1" xmlns="http://www.w3.org/2000/svg" xmlns:xlink="http://www.w3.org/1999/xlink">
    <!-- Generator: Sketch 52.6 (67491) - http://www.bohemiancoding.com/sketch -->
    <title>2-Registration</title>
    <desc>Created with Sketch.</desc>
    <defs>
        <rect id="path-1" x="0" y="0" width="795" height="890" rx="3"></rect>
        <path d="M2,0 L68,0 C69.1045695,-2.02906125e-16 70,0.8954305 70,2 L70,61.111111 C70,62.2156805 69.1045695,63.111111 68,63.111111 L2,63.111111 C0.8954305,63.111111 1.3527075e-16,62.2156805 0,61.111111 L0,2 C-1.3527075e-16,0.8954305 0.8954305,2.02906125e-16 2,0 Z" id="path-3"></path>
        <circle id="path-5" cx="32" cy="32" r="32"></circle>
    </defs>
    <g id="Lock-and-Feeling" stroke="none" stroke-width="1" fill="none" fill-rule="evenodd">
        <g id="UI_Tutorial-Information" transform="translate(-148.000000, -1686.000000)">
            <rect fill="#000000" x="0" y="0" width="1440" height="7895"></rect>
            <g id="How-It-Works" transform="translate(147.000000, 590.000000)">
                <g id="Graphic-#2" transform="translate(1.000000, 1096.000000)">
                    <g id="Line-10">
                        <mask id="mask-2" fill="white">
                            <use xlink:href="#path-1"></use>
                        </mask>
                        <use id="Mask" fill="#202122" fill-rule="nonzero" xlink:href="#path-1"></use>
                        <path d="M96.5,185.417862 L96.5,825.582138" stroke="#FFFFFF" opacity="0.329999983" stroke-linecap="square" stroke-dasharray="2,6" fill-rule="nonzero" mask="url(#mask-2)"></path>
                        <path d="M273.5,185.417862 L273.5,825.582138" stroke="#FFFFFF" opacity="0.329999983" stroke-linecap="square" stroke-dasharray="2,6" fill-rule="nonzero" mask="url(#mask-2)"></path>
                        <path d="M469.5,185.417862 L469.5,825.582138" stroke="#FFFFFF" opacity="0.329999983" stroke-linecap="square" stroke-dasharray="2,6" fill-rule="nonzero" mask="url(#mask-2)"></path>
                        <path d="M665.5,185.417862 L665.5,825.582138" stroke="#FFFFFF" opacity="0.329999983" stroke-linecap="square" stroke-dasharray="2,6" fill-rule="nonzero" mask="url(#mask-2)"></path>
                        <path d="M600.5,370.5 L529.068214,441.931786" id="Line-11" stroke="#FFFFFF" opacity="0.329999983" stroke-linecap="square" stroke-dasharray="2,6" fill-rule="nonzero" mask="url(#mask-2)"></path>
                    </g>
                    <g id="User-Agent" transform="translate(96.000000, 63.000000)">
                        <g id="Rectangle-4" transform="translate(144.000000, 0.000000)">
                            <mask id="mask-4" fill="white">
                                <use xlink:href="#path-3"></use>
                            </mask>
                            <use id="Mask" fill="#595B5C" fill-rule="nonzero" xlink:href="#path-3"></use>
                            <rect fill="#2F3132" fill-rule="nonzero" mask="url(#mask-4)" x="0" y="0" width="70" height="8.75"></rect>
                            <circle id="Oval-3" fill="#FF554F" fill-rule="nonzero" mask="url(#mask-4)" cx="4.375" cy="4.375" r="1.75"></circle>
                            <circle id="Oval-3" fill="#FFC430" fill-rule="nonzero" mask="url(#mask-4)" cx="9.625" cy="4.375" r="1.75"></circle>
                            <circle id="Oval-3" fill="#29CF42" fill-rule="nonzero" mask="url(#mask-4)" cx="14.875" cy="4.375" r="1.75"></circle>
                        </g>
                        <text id=":User-Agent" font-family="Helvetica" font-size="12" font-weight="normal" line-spacing="22" letter-spacing="0.8571429" fill="#FFFFFF">
                            <tspan x="158.520229" y="95">:USER </tspan>
                            <tspan x="156.188197" y="117">AGENT</tspan>
                        </text>
                        <text id="Goes-to-relying-part" font-family="Helvetica" font-size="12" font-weight="normal" line-spacing="18" fill="#FFFFFF">
                            <tspan x="50.1464844" y="153">Goes to relying</tspan>
                            <tspan x="50.8173828" y="171">party’s website</tspan>
                        </text>
                        <rect id="Rectangle-20" fill="#3C3E3E" fill-rule="nonzero" x="425" y="212" width="227" height="95" rx="6"></rect>
                        <path id="Line-9" d="M171,193 L0.5,193 L-2.77555756e-16,193 L-2.77555756e-16,192 L0.5,192 L171,192 L171,188 L180,192.5 L171,197 L171,193 Z" fill="#FFFFFF" fill-rule="nonzero" opacity="0.5"></path>
                        <path id="Line-9" d="M178.091247,305 L171.754869,301.435788 L171.319082,301.190657 L171.809343,300.319082 L172.245131,300.564212 L180.245131,305.064212 L181.019864,305.5 L180.245131,305.935788 L172.245131,310.435788 L171.809343,310.680918 L171.319082,309.809343 L171.754869,309.564212 L178.091247,306 L172,306 L0.5,306 L-2.77555756e-16,306 L-2.77555756e-16,305 L0.5,305 L172,305 L178.091247,305 Z" fill="#FFFFFF" fill-rule="nonzero" opacity="0.5"></path>
                        <path id="Line-9" d="M13.5,756.5 L181,756.5 L181.5,756.5 L181.5,757.5 L181,757.5 L13.5,757.5 L13.5,761.5 L4.5,757 L13.5,752.5 L13.5,756.5 Z" fill="#FFFFFF" fill-rule="nonzero" opacity="0.5"></path>
                        <path id="Line-9" d="M362,205 L182.5,205 L182,205 L182,204 L182.5,204 L362,204 L362,200 L371,204.5 L362,209 L362,205 Z" fill="#FFFFFF" fill-rule="nonzero" opacity="0.5"></path>
                        <path id="Line-9" d="M183.908753,254 L190.245131,257.564212 L190.680918,257.809343 L190.190657,258.680918 L189.754869,258.435788 L181.754869,253.935788 L180.980136,253.5 L181.754869,253.064212 L189.754869,248.564212 L190.190657,248.319082 L190.680918,249.190657 L190.245131,249.435788 L183.908753,253 L186,253 L186.5,253 L186.5,254 L186,254 L183.908753,254 Z M189,254 L188.5,254 L188.5,253 L189,253 L190,253 L192,253 L192.5,253 L192.5,254 L192,254 L190,254 L189,254 Z M195,254 L194.5,254 L194.5,253 L195,253 L198,253 L198.5,253 L198.5,254 L198,254 L195,254 Z M201,254 L200.5,254 L200.5,253 L201,253 L204,253 L204.5,253 L204.5,254 L204,254 L201,254 Z M207,254 L206.5,254 L206.5,253 L207,253 L210,253 L210.5,253 L210.5,254 L210,254 L207,254 Z M213,254 L212.5,254 L212.5,253 L213,253 L216,253 L216.5,253 L216.5,254 L216,254 L213,254 Z M219,254 L218.5,254 L218.5,253 L219,253 L222,253 L222.5,253 L222.5,254 L222,254 L219,254 Z M225,254 L224.5,254 L224.5,253 L225,253 L228,253 L228.5,253 L228.5,254 L228,254 L225,254 Z M231,254 L230.5,254 L230.5,253 L231,253 L234,253 L234.5,253 L234.5,254 L234,254 L231,254 Z M237,254 L236.5,254 L236.5,253 L237,253 L240,253 L240.5,253 L240.5,254 L240,254 L237,254 Z M243,254 L242.5,254 L242.5,253 L243,253 L246,253 L246.5,253 L246.5,254 L246,254 L243,254 Z M249,254 L248.5,254 L248.5,253 L249,253 L252,253 L252.5,253 L252.5,254 L252,254 L249,254 Z M255,254 L254.5,254 L254.5,253 L255,253 L258,253 L258.5,253 L258.5,254 L258,254 L255,254 Z M261,254 L260.5,254 L260.5,253 L261,253 L264,253 L264.5,253 L264.5,254 L264,254 L261,254 Z M267,254 L266.5,254 L266.5,253 L267,253 L270,253 L270.5,253 L270.5,254 L270,254 L267,254 Z M273,254 L272.5,254 L272.5,253 L273,253 L276,253 L276.5,253 L276.5,254 L276,254 L273,254 Z M279,254 L278.5,254 L278.5,253 L279,253 L282,253 L282.5,253 L282.5,254 L282,254 L279,254 Z M285,254 L284.5,254 L284.5,253 L285,253 L288,253 L288.5,253 L288.5,254 L288,254 L285,254 Z M291,254 L290.5,254 L290.5,253 L291,253 L294,253 L294.5,253 L294.5,254 L294,254 L291,254 Z M297,254 L296.5,254 L296.5,253 L297,253 L300,253 L300.5,253 L300.5,254 L300,254 L297,254 Z M303,254 L302.5,254 L302.5,253 L303,253 L306,253 L306.5,253 L306.5,254 L306,254 L303,254 Z M309,254 L308.5,254 L308.5,253 L309,253 L312,253 L312.5,253 L312.5,254 L312,254 L309,254 Z M315,254 L314.5,254 L314.5,253 L315,253 L318,253 L318.5,253 L318.5,254 L318,254 L315,254 Z M321,254 L320.5,254 L320.5,253 L321,253 L324,253 L324.5,253 L324.5,254 L324,254 L321,254 Z M327,254 L326.5,254 L326.5,253 L327,253 L330,253 L330.5,253 L330.5,254 L330,254 L327,254 Z M333,254 L332.5,254 L332.5,253 L333,253 L336,253 L336.5,253 L336.5,254 L336,254 L333,254 Z M339,254 L338.5,254 L338.5,253 L339,253 L342,253 L342.5,253 L342.5,254 L342,254 L339,254 Z M345,254 L344.5,254 L344.5,253 L345,253 L348,253 L348.5,253 L348.5,254 L348,254 L345,254 Z M351,254 L350.5,254 L350.5,253 L351,253 L354,253 L354.5,253 L354.5,254 L354,254 L351,254 Z M357,254 L356.5,254 L356.5,253 L357,253 L360,253 L360.5,253 L360.5,254 L360,254 L357,254 Z M363,254 L362.5,254 L362.5,253 L363,253 L366,253 L366.5,253 L366.5,254 L366,254 L363,254 Z M369,254 L368.5,254 L368.5,253 L369,253 L370.5,253 L371,253 L371,254 L370.5,254 L369,254 Z" fill="#FFFFFF" fill-rule="nonzero" opacity="0.5"></path>
                        <path id="Line-9" d="M5.90875332,265 L12.2451306,268.564212 L12.6809184,268.809343 L12.1906571,269.680918 L11.7548694,269.435788 L3.75486938,264.935788 L2.98013557,264.5 L3.75486938,264.064212 L11.7548694,259.564212 L12.1906571,259.319082 L12.6809184,260.190657 L12.2451306,260.435788 L5.90875332,264 L8,264 L8.5,264 L8.5,265 L8,265 L5.90875332,265 Z M11,265 L10.5,265 L10.5,264 L11,264 L12,264 L14,264 L14.5,264 L14.5,265 L14,265 L12,265 L11,265 Z M17,265 L16.5,265 L16.5,264 L17,264 L20,264 L20.5,264 L20.5,265 L20,265 L17,265 Z M23,265 L22.5,265 L22.5,264 L23,264 L26,264 L26.5,264 L26.5,265 L26,265 L23,265 Z M29,265 L28.5,265 L28.5,264 L29,264 L32,264 L32.5,264 L32.5,265 L32,265 L29,265 Z M35,265 L34.5,265 L34.5,264 L35,264 L38,264 L38.5,264 L38.5,265 L38,265 L35,265 Z M41,265 L40.5,265 L40.5,264 L41,264 L44,264 L44.5,264 L44.5,265 L44,265 L41,265 Z M47,265 L46.5,265 L46.5,264 L47,264 L50,264 L50.5,264 L50.5,265 L50,265 L47,265 Z M53,265 L52.5,265 L52.5,264 L53,264 L56,264 L56.5,264 L56.5,265 L56,265 L53,265 Z M59,265 L58.5,265 L58.5,264 L59,264 L62,264 L62.5,264 L62.5,265 L62,265 L59,265 Z M65,265 L64.5,265 L64.5,264 L65,264 L68,264 L68.5,264 L68.5,265 L68,265 L65,265 Z M71,265 L70.5,265 L70.5,264 L71,264 L74,264 L74.5,264 L74.5,265 L74,265 L71,265 Z M77,265 L76.5,265 L76.5,264 L77,264 L80,264 L80.5,264 L80.5,265 L80,265 L77,265 Z M83,265 L82.5,265 L82.5,264 L83,264 L86,264 L86.5,264 L86.5,265 L86,265 L83,265 Z M89,265 L88.5,265 L88.5,264 L89,264 L92,264 L92.5,264 L92.5,265 L92,265 L89,265 Z M95,265 L94.5,265 L94.5,264 L95,264 L98,264 L98.5,264 L98.5,265 L98,265 L95,265 Z M101,265 L100.5,265 L100.5,264 L101,264 L104,264 L104.5,264 L104.5,265 L104,265 L101,265 Z M107,265 L106.5,265 L106.5,264 L107,264 L110,264 L110.5,264 L110.5,265 L110,265 L107,265 Z M113,265 L112.5,265 L112.5,264 L113,264 L116,264 L116.5,264 L116.5,265 L116,265 L113,265 Z M119,265 L118.5,265 L118.5,264 L119,264 L122,264 L122.5,264 L122.5,265 L122,265 L119,265 Z M125,265 L124.5,265 L124.5,264 L125,264 L128,264 L128.5,264 L128.5,265 L128,265 L125,265 Z M131,265 L130.5,265 L130.5,264 L131,264 L134,264 L134.5,264 L134.5,265 L134,265 L131,265 Z M137,265 L136.5,265 L136.5,264 L137,264 L140,264 L140.5,264 L140.5,265 L140,265 L137,265 Z M143,265 L142.5,265 L142.5,264 L143,264 L146,264 L146.5,264 L146.5,265 L146,265 L143,265 Z M149,265 L148.5,265 L148.5,264 L149,264 L152,264 L152.5,264 L152.5,265 L152,265 L149,265 Z M155,265 L154.5,265 L154.5,264 L155,264 L158,264 L158.5,264 L158.5,265 L158,265 L155,265 Z M161,265 L160.5,265 L160.5,264 L161,264 L164,264 L164.5,264 L164.5,265 L164,265 L161,265 Z M167,265 L166.5,265 L166.5,264 L167,264 L170,264 L170.5,264 L170.5,265 L170,265 L167,265 Z M173,265 L172.5,265 L172.5,264 L173,264 L176,264 L176.5,264 L176.5,265 L176,265 L173,265 Z" fill="#FFFFFF" fill-rule="nonzero" opacity="0.5"></path>
                        <path id="Line-9" d="M362,317 L182.5,317 L182,317 L182,316 L182.5,316 L362,316 L362,312 L371,316.5 L362,321 L362,317 Z" fill="#FFFFFF" fill-rule="nonzero" opacity="0.5"></path>
                        <path id="Line-9" d="M362.5,682.75 L181,682.75 L180.5,682.75 L180.5,681.75 L181,681.75 L362.5,681.75 L362.5,677.75 L371.5,682.25 L362.5,686.75 L362.5,682.75 Z" fill="#FFFFFF" fill-rule="nonzero" opacity="0.5"></path>
                        <path id="Line-9" d="M184.408753,727.75 L190.745131,731.314212 L191.180918,731.559343 L190.690657,732.430918 L190.254869,732.185788 L182.254869,727.685788 L181.480136,727.25 L182.254869,726.814212 L190.254869,722.314212 L190.690657,722.069082 L191.180918,722.940657 L190.745131,723.185788 L184.408753,726.75 L186.5,726.75 L187,726.75 L187,727.75 L186.5,727.75 L184.408753,727.75 Z M189.5,727.75 L189,727.75 L189,726.75 L189.5,726.75 L190.5,726.75 L192.5,726.75 L193,726.75 L193,727.75 L192.5,727.75 L190.5,727.75 L189.5,727.75 Z M195.5,727.75 L195,727.75 L195,726.75 L195.5,726.75 L198.5,726.75 L199,726.75 L199,727.75 L198.5,727.75 L195.5,727.75 Z M201.5,727.75 L201,727.75 L201,726.75 L201.5,726.75 L204.5,726.75 L205,726.75 L205,727.75 L204.5,727.75 L201.5,727.75 Z M207.5,727.75 L207,727.75 L207,726.75 L207.5,726.75 L210.5,726.75 L211,726.75 L211,727.75 L210.5,727.75 L207.5,727.75 Z M213.5,727.75 L213,727.75 L213,726.75 L213.5,726.75 L216.5,726.75 L217,726.75 L217,727.75 L216.5,727.75 L213.5,727.75 Z M219.5,727.75 L219,727.75 L219,726.75 L219.5,726.75 L222.5,726.75 L223,726.75 L223,727.75 L222.5,727.75 L219.5,727.75 Z M225.5,727.75 L225,727.75 L225,726.75 L225.5,726.75 L228.5,726.75 L229,726.75 L229,727.75 L228.5,727.75 L225.5,727.75 Z M231.5,727.75 L231,727.75 L231,726.75 L231.5,726.75 L234.5,726.75 L235,726.75 L235,727.75 L234.5,727.75 L231.5,727.75 Z M237.5,727.75 L237,727.75 L237,726.75 L237.5,726.75 L240.5,726.75 L241,726.75 L241,727.75 L240.5,727.75 L237.5,727.75 Z M243.5,727.75 L243,727.75 L243,726.75 L243.5,726.75 L246.5,726.75 L247,726.75 L247,727.75 L246.5,727.75 L243.5,727.75 Z M249.5,727.75 L249,727.75 L249,726.75 L249.5,726.75 L252.5,726.75 L253,726.75 L253,727.75 L252.5,727.75 L249.5,727.75 Z M255.5,727.75 L255,727.75 L255,726.75 L255.5,726.75 L258.5,726.75 L259,726.75 L259,727.75 L258.5,727.75 L255.5,727.75 Z M261.5,727.75 L261,727.75 L261,726.75 L261.5,726.75 L264.5,726.75 L265,726.75 L265,727.75 L264.5,727.75 L261.5,727.75 Z M267.5,727.75 L267,727.75 L267,726.75 L267.5,726.75 L270.5,726.75 L271,726.75 L271,727.75 L270.5,727.75 L267.5,727.75 Z M273.5,727.75 L273,727.75 L273,726.75 L273.5,726.75 L276.5,726.75 L277,726.75 L277,727.75 L276.5,727.75 L273.5,727.75 Z M279.5,727.75 L279,727.75 L279,726.75 L279.5,726.75 L282.5,726.75 L283,726.75 L283,727.75 L282.5,727.75 L279.5,727.75 Z M285.5,727.75 L285,727.75 L285,726.75 L285.5,726.75 L288.5,726.75 L289,726.75 L289,727.75 L288.5,727.75 L285.5,727.75 Z M291.5,727.75 L291,727.75 L291,726.75 L291.5,726.75 L294.5,726.75 L295,726.75 L295,727.75 L294.5,727.75 L291.5,727.75 Z M297.5,727.75 L297,727.75 L297,726.75 L297.5,726.75 L300.5,726.75 L301,726.75 L301,727.75 L300.5,727.75 L297.5,727.75 Z M303.5,727.75 L303,727.75 L303,726.75 L303.5,726.75 L306.5,726.75 L307,726.75 L307,727.75 L306.5,727.75 L303.5,727.75 Z M309.5,727.75 L309,727.75 L309,726.75 L309.5,726.75 L312.5,726.75 L313,726.75 L313,727.75 L312.5,727.75 L309.5,727.75 Z M315.5,727.75 L315,727.75 L315,726.75 L315.5,726.75 L318.5,726.75 L319,726.75 L319,727.75 L318.5,727.75 L315.5,727.75 Z M321.5,727.75 L321,727.75 L321,726.75 L321.5,726.75 L324.5,726.75 L325,726.75 L325,727.75 L324.5,727.75 L321.5,727.75 Z M327.5,727.75 L327,727.75 L327,726.75 L327.5,726.75 L330.5,726.75 L331,726.75 L331,727.75 L330.5,727.75 L327.5,727.75 Z M333.5,727.75 L333,727.75 L333,726.75 L333.5,726.75 L336.5,726.75 L337,726.75 L337,727.75 L336.5,727.75 L333.5,727.75 Z M339.5,727.75 L339,727.75 L339,726.75 L339.5,726.75 L342.5,726.75 L343,726.75 L343,727.75 L342.5,727.75 L339.5,727.75 Z M345.5,727.75 L345,727.75 L345,726.75 L345.5,726.75 L348.5,726.75 L349,726.75 L349,727.75 L348.5,727.75 L345.5,727.75 Z M351.5,727.75 L351,727.75 L351,726.75 L351.5,726.75 L354.5,726.75 L355,726.75 L355,727.75 L354.5,727.75 L351.5,727.75 Z M357.5,727.75 L357,727.75 L357,726.75 L357.5,726.75 L360.5,726.75 L361,726.75 L361,727.75 L360.5,727.75 L357.5,727.75 Z M363.5,727.75 L363,727.75 L363,726.75 L363.5,726.75 L366.5,726.75 L367,726.75 L367,727.75 L366.5,727.75 L363.5,727.75 Z M369.5,727.75 L369,727.75 L369,726.75 L369.5,726.75 L371,726.75 L371.5,726.75 L371.5,727.75 L371,727.75 L369.5,727.75 Z" fill="#FFFFFF" fill-rule="nonzero" opacity="0.5"></path>
                        <path id="Line-9" d="M562,441 L182.5,441 L182,441 L182,440 L182.5,440 L562,440 L562,436 L571,440.5 L562,445 L562,441 Z" fill="#FFFFFF" fill-rule="nonzero" opacity="0.5"></path>
                        <path id="Line-9" d="M191.5,619.5 L571,619.5 L571.5,619.5 L571.5,620.5 L571,620.5 L191.5,620.5 L191.5,624.5 L182.5,620 L191.5,615.5 L191.5,619.5 Z" fill="#FFFFFF" fill-rule="nonzero" opacity="0.5"></path>
                        <path id="Line-9" d="M13.5,498.5 L570,498.5 L570.5,498.5 L570.5,499.5 L570,499.5 L13.5,499.5 L13.5,503.5 L4.5,499 L13.5,494.5 L13.5,498.5 Z" fill="#FFFFFF" fill-rule="nonzero" opacity="0.5"></path>
                        <path id="Line-9" d="M183.908753,366 L190.245131,369.564212 L190.680918,369.809343 L190.190657,370.680918 L189.754869,370.435788 L181.754869,365.935788 L180.980136,365.5 L181.754869,365.064212 L189.754869,360.564212 L190.190657,360.319082 L190.680918,361.190657 L190.245131,361.435788 L183.908753,365 L186,365 L186.5,365 L186.5,366 L186,366 L183.908753,366 Z M189,366 L188.5,366 L188.5,365 L189,365 L190,365 L192,365 L192.5,365 L192.5,366 L192,366 L190,366 L189,366 Z M195,366 L194.5,366 L194.5,365 L195,365 L198,365 L198.5,365 L198.5,366 L198,366 L195,366 Z M201,366 L200.5,366 L200.5,365 L201,365 L204,365 L204.5,365 L204.5,366 L204,366 L201,366 Z M207,366 L206.5,366 L206.5,365 L207,365 L210,365 L210.5,365 L210.5,366 L210,366 L207,366 Z M213,366 L212.5,366 L212.5,365 L213,365 L216,365 L216.5,365 L216.5,366 L216,366 L213,366 Z M219,366 L218.5,366 L218.5,365 L219,365 L222,365 L222.5,365 L222.5,366 L222,366 L219,366 Z M225,366 L224.5,366 L224.5,365 L225,365 L228,365 L228.5,365 L228.5,366 L228,366 L225,366 Z M231,366 L230.5,366 L230.5,365 L231,365 L234,365 L234.5,365 L234.5,366 L234,366 L231,366 Z M237,366 L236.5,366 L236.5,365 L237,365 L240,365 L240.5,365 L240.5,366 L240,366 L237,366 Z M243,366 L242.5,366 L242.5,365 L243,365 L246,365 L246.5,365 L246.5,366 L246,366 L243,366 Z M249,366 L248.5,366 L248.5,365 L249,365 L252,365 L252.5,365 L252.5,366 L252,366 L249,366 Z M255,366 L254.5,366 L254.5,365 L255,365 L258,365 L258.5,365 L258.5,366 L258,366 L255,366 Z M261,366 L260.5,366 L260.5,365 L261,365 L264,365 L264.5,365 L264.5,366 L264,366 L261,366 Z M267,366 L266.5,366 L266.5,365 L267,365 L270,365 L270.5,365 L270.5,366 L270,366 L267,366 Z M273,366 L272.5,366 L272.5,365 L273,365 L276,365 L276.5,365 L276.5,366 L276,366 L273,366 Z M279,366 L278.5,366 L278.5,365 L279,365 L282,365 L282.5,365 L282.5,366 L282,366 L279,366 Z M285,366 L284.5,366 L284.5,365 L285,365 L288,365 L288.5,365 L288.5,366 L288,366 L285,366 Z M291,366 L290.5,366 L290.5,365 L291,365 L294,365 L294.5,365 L294.5,366 L294,366 L291,366 Z M297,366 L296.5,366 L296.5,365 L297,365 L300,365 L300.5,365 L300.5,366 L300,366 L297,366 Z M303,366 L302.5,366 L302.5,365 L303,365 L306,365 L306.5,365 L306.5,366 L306,366 L303,366 Z M309,366 L308.5,366 L308.5,365 L309,365 L312,365 L312.5,365 L312.5,366 L312,366 L309,366 Z M315,366 L314.5,366 L314.5,365 L315,365 L318,365 L318.5,365 L318.5,366 L318,366 L315,366 Z M321,366 L320.5,366 L320.5,365 L321,365 L324,365 L324.5,365 L324.5,366 L324,366 L321,366 Z M327,366 L326.5,366 L326.5,365 L327,365 L330,365 L330.5,365 L330.5,366 L330,366 L327,366 Z M333,366 L332.5,366 L332.5,365 L333,365 L336,365 L336.5,365 L336.5,366 L336,366 L333,366 Z M339,366 L338.5,366 L338.5,365 L339,365 L342,365 L342.5,365 L342.5,366 L342,366 L339,366 Z M345,366 L344.5,366 L344.5,365 L345,365 L348,365 L348.5,365 L348.5,366 L348,366 L345,366 Z M351,366 L350.5,366 L350.5,365 L351,365 L354,365 L354.5,365 L354.5,366 L354,366 L351,366 Z M357,366 L356.5,366 L356.5,365 L357,365 L360,365 L360.5,365 L360.5,366 L360,366 L357,366 Z M363,366 L362.5,366 L362.5,365 L363,365 L366,365 L366.5,365 L366.5,366 L366,366 L363,366 Z M369,366 L368.5,366 L368.5,365 L369,365 L370.5,365 L371,365 L371,366 L370.5,366 L369,366 Z" fill="#FFFFFF" fill-rule="nonzero" opacity="0.5"></path>
                        <path id="Line-9" d="M568,558.979924 L568,559.520076 L568.480136,559.25 L568,558.979924 Z M567.591247,558.75 L561.254869,555.185788 L560.819082,554.940657 L561.309343,554.069082 L561.745131,554.314212 L569.745131,558.814212 L570.519864,559.25 L569.745131,559.685788 L561.745131,564.185788 L561.309343,564.430918 L560.819082,563.559343 L561.254869,563.314212 L567.591247,559.75 L567.5,559.75 L564.5,559.75 L564,559.75 L564,558.75 L564.5,558.75 L567.5,558.75 L567.591247,558.75 Z M6.5,559.75 L6,559.75 L6,558.75 L6.5,558.75 L9.5,558.75 L10,558.75 L10,559.75 L9.5,559.75 L6.5,559.75 Z M12.5,559.75 L12,559.75 L12,558.75 L12.5,558.75 L15.5,558.75 L16,558.75 L16,559.75 L15.5,559.75 L12.5,559.75 Z M18.5,559.75 L18,559.75 L18,558.75 L18.5,558.75 L21.5,558.75 L22,558.75 L22,559.75 L21.5,559.75 L18.5,559.75 Z M24.5,559.75 L24,559.75 L24,558.75 L24.5,558.75 L27.5,558.75 L28,558.75 L28,559.75 L27.5,559.75 L24.5,559.75 Z M30.5,559.75 L30,559.75 L30,558.75 L30.5,558.75 L33.5,558.75 L34,558.75 L34,559.75 L33.5,559.75 L30.5,559.75 Z M36.5,559.75 L36,559.75 L36,558.75 L36.5,558.75 L39.5,558.75 L40,558.75 L40,559.75 L39.5,559.75 L36.5,559.75 Z M42.5,559.75 L42,559.75 L42,558.75 L42.5,558.75 L45.5,558.75 L46,558.75 L46,559.75 L45.5,559.75 L42.5,559.75 Z M48.5,559.75 L48,559.75 L48,558.75 L48.5,558.75 L51.5,558.75 L52,558.75 L52,559.75 L51.5,559.75 L48.5,559.75 Z M54.5,559.75 L54,559.75 L54,558.75 L54.5,558.75 L57.5,558.75 L58,558.75 L58,559.75 L57.5,559.75 L54.5,559.75 Z M60.5,559.75 L60,559.75 L60,558.75 L60.5,558.75 L63.5,558.75 L64,558.75 L64,559.75 L63.5,559.75 L60.5,559.75 Z M66.5,559.75 L66,559.75 L66,558.75 L66.5,558.75 L69.5,558.75 L70,558.75 L70,559.75 L69.5,559.75 L66.5,559.75 Z M72.5,559.75 L72,559.75 L72,558.75 L72.5,558.75 L75.5,558.75 L76,558.75 L76,559.75 L75.5,559.75 L72.5,559.75 Z M78.5,559.75 L78,559.75 L78,558.75 L78.5,558.75 L81.5,558.75 L82,558.75 L82,559.75 L81.5,559.75 L78.5,559.75 Z M84.5,559.75 L84,559.75 L84,558.75 L84.5,558.75 L87.5,558.75 L88,558.75 L88,559.75 L87.5,559.75 L84.5,559.75 Z M90.5,559.75 L90,559.75 L90,558.75 L90.5,558.75 L93.5,558.75 L94,558.75 L94,559.75 L93.5,559.75 L90.5,559.75 Z M96.5,559.75 L96,559.75 L96,558.75 L96.5,558.75 L99.5,558.75 L100,558.75 L100,559.75 L99.5,559.75 L96.5,559.75 Z M102.5,559.75 L102,559.75 L102,558.75 L102.5,558.75 L105.5,558.75 L106,558.75 L106,559.75 L105.5,559.75 L102.5,559.75 Z M108.5,559.75 L108,559.75 L108,558.75 L108.5,558.75 L111.5,558.75 L112,558.75 L112,559.75 L111.5,559.75 L108.5,559.75 Z M114.5,559.75 L114,559.75 L114,558.75 L114.5,558.75 L117.5,558.75 L118,558.75 L118,559.75 L117.5,559.75 L114.5,559.75 Z M120.5,559.75 L120,559.75 L120,558.75 L120.5,558.75 L123.5,558.75 L124,558.75 L124,559.75 L123.5,559.75 L120.5,559.75 Z M126.5,559.75 L126,559.75 L126,558.75 L126.5,558.75 L129.5,558.75 L130,558.75 L130,559.75 L129.5,559.75 L126.5,559.75 Z M132.5,559.75 L132,559.75 L132,558.75 L132.5,558.75 L135.5,558.75 L136,558.75 L136,559.75 L135.5,559.75 L132.5,559.75 Z M138.5,559.75 L138,559.75 L138,558.75 L138.5,558.75 L141.5,558.75 L142,558.75 L142,559.75 L141.5,559.75 L138.5,559.75 Z M144.5,559.75 L144,559.75 L144,558.75 L144.5,558.75 L147.5,558.75 L148,558.75 L148,559.75 L147.5,559.75 L144.5,559.75 Z M150.5,559.75 L150,559.75 L150,558.75 L150.5,558.75 L153.5,558.75 L154,558.75 L154,559.75 L153.5,559.75 L150.5,559.75 Z M156.5,559.75 L156,559.75 L156,558.75 L156.5,558.75 L159.5,558.75 L160,558.75 L160,559.75 L159.5,559.75 L156.5,559.75 Z M162.5,559.75 L162,559.75 L162,558.75 L162.5,558.75 L165.5,558.75 L166,558.75 L166,559.75 L165.5,559.75 L162.5,559.75 Z M168.5,559.75 L168,559.75 L168,558.75 L168.5,558.75 L171.5,558.75 L172,558.75 L172,559.75 L171.5,559.75 L168.5,559.75 Z M174.5,559.75 L174,559.75 L174,558.75 L174.5,558.75 L177.5,558.75 L178,558.75 L178,559.75 L177.5,559.75 L174.5,559.75 Z M180.5,559.75 L180,559.75 L180,558.75 L180.5,558.75 L183.5,558.75 L184,558.75 L184,559.75 L183.5,559.75 L180.5,559.75 Z M186.5,559.75 L186,559.75 L186,558.75 L186.5,558.75 L189.5,558.75 L190,558.75 L190,559.75 L189.5,559.75 L186.5,559.75 Z M192.5,559.75 L192,559.75 L192,558.75 L192.5,558.75 L195.5,558.75 L196,558.75 L196,559.75 L195.5,559.75 L192.5,559.75 Z M198.5,559.75 L198,559.75 L198,558.75 L198.5,558.75 L201.5,558.75 L202,558.75 L202,559.75 L201.5,559.75 L198.5,559.75 Z M204.5,559.75 L204,559.75 L204,558.75 L204.5,558.75 L207.5,558.75 L208,558.75 L208,559.75 L207.5,559.75 L204.5,559.75 Z M210.5,559.75 L210,559.75 L210,558.75 L210.5,558.75 L213.5,558.75 L214,558.75 L214,559.75 L213.5,559.75 L210.5,559.75 Z M216.5,559.75 L216,559.75 L216,558.75 L216.5,558.75 L219.5,558.75 L220,558.75 L220,559.75 L219.5,559.75 L216.5,559.75 Z M222.5,559.75 L222,559.75 L222,558.75 L222.5,558.75 L225.5,558.75 L226,558.75 L226,559.75 L225.5,559.75 L222.5,559.75 Z M228.5,559.75 L228,559.75 L228,558.75 L228.5,558.75 L231.5,558.75 L232,558.75 L232,559.75 L231.5,559.75 L228.5,559.75 Z M234.5,559.75 L234,559.75 L234,558.75 L234.5,558.75 L237.5,558.75 L238,558.75 L238,559.75 L237.5,559.75 L234.5,559.75 Z M240.5,559.75 L240,559.75 L240,558.75 L240.5,558.75 L243.5,558.75 L244,558.75 L244,559.75 L243.5,559.75 L240.5,559.75 Z M246.5,559.75 L246,559.75 L246,558.75 L246.5,558.75 L249.5,558.75 L250,558.75 L250,559.75 L249.5,559.75 L246.5,559.75 Z M252.5,559.75 L252,559.75 L252,558.75 L252.5,558.75 L255.5,558.75 L256,558.75 L256,559.75 L255.5,559.75 L252.5,559.75 Z M258.5,559.75 L258,559.75 L258,558.75 L258.5,558.75 L261.5,558.75 L262,558.75 L262,559.75 L261.5,559.75 L258.5,559.75 Z M264.5,559.75 L264,559.75 L264,558.75 L264.5,558.75 L267.5,558.75 L268,558.75 L268,559.75 L267.5,559.75 L264.5,559.75 Z M270.5,559.75 L270,559.75 L270,558.75 L270.5,558.75 L273.5,558.75 L274,558.75 L274,559.75 L273.5,559.75 L270.5,559.75 Z M276.5,559.75 L276,559.75 L276,558.75 L276.5,558.75 L279.5,558.75 L280,558.75 L280,559.75 L279.5,559.75 L276.5,559.75 Z M282.5,559.75 L282,559.75 L282,558.75 L282.5,558.75 L285.5,558.75 L286,558.75 L286,559.75 L285.5,559.75 L282.5,559.75 Z M288.5,559.75 L288,559.75 L288,558.75 L288.5,558.75 L291.5,558.75 L292,558.75 L292,559.75 L291.5,559.75 L288.5,559.75 Z M294.5,559.75 L294,559.75 L294,558.75 L294.5,558.75 L297.5,558.75 L298,558.75 L298,559.75 L297.5,559.75 L294.5,559.75 Z M300.5,559.75 L300,559.75 L300,558.75 L300.5,558.75 L303.5,558.75 L304,558.75 L304,559.75 L303.5,559.75 L300.5,559.75 Z M306.5,559.75 L306,559.75 L306,558.75 L306.5,558.75 L309.5,558.75 L310,558.75 L310,559.75 L309.5,559.75 L306.5,559.75 Z M312.5,559.75 L312,559.75 L312,558.75 L312.5,558.75 L315.5,558.75 L316,558.75 L316,559.75 L315.5,559.75 L312.5,559.75 Z M318.5,559.75 L318,559.75 L318,558.75 L318.5,558.75 L321.5,558.75 L322,558.75 L322,559.75 L321.5,559.75 L318.5,559.75 Z M324.5,559.75 L324,559.75 L324,558.75 L324.5,558.75 L327.5,558.75 L328,558.75 L328,559.75 L327.5,559.75 L324.5,559.75 Z M330.5,559.75 L330,559.75 L330,558.75 L330.5,558.75 L333.5,558.75 L334,558.75 L334,559.75 L333.5,559.75 L330.5,559.75 Z M336.5,559.75 L336,559.75 L336,558.75 L336.5,558.75 L339.5,558.75 L340,558.75 L340,559.75 L339.5,559.75 L336.5,559.75 Z M342.5,559.75 L342,559.75 L342,558.75 L342.5,558.75 L345.5,558.75 L346,558.75 L346,559.75 L345.5,559.75 L342.5,559.75 Z M348.5,559.75 L348,559.75 L348,558.75 L348.5,558.75 L351.5,558.75 L352,558.75 L352,559.75 L351.5,559.75 L348.5,559.75 Z M354.5,559.75 L354,559.75 L354,558.75 L354.5,558.75 L357.5,558.75 L358,558.75 L358,559.75 L357.5,559.75 L354.5,559.75 Z M360.5,559.75 L360,559.75 L360,558.75 L360.5,558.75 L363.5,558.75 L364,558.75 L364,559.75 L363.5,559.75 L360.5,559.75 Z M366.5,559.75 L366,559.75 L366,558.75 L366.5,558.75 L369.5,558.75 L370,558.75 L370,559.75 L369.5,559.75 L366.5,559.75 Z M372.5,559.75 L372,559.75 L372,558.75 L372.5,558.75 L375.5,558.75 L376,558.75 L376,559.75 L375.5,559.75 L372.5,559.75 Z M378.5,559.75 L378,559.75 L378,558.75 L378.5,558.75 L381.5,558.75 L382,558.75 L382,559.75 L381.5,559.75 L378.5,559.75 Z M384.5,559.75 L384,559.75 L384,558.75 L384.5,558.75 L387.5,558.75 L388,558.75 L388,559.75 L387.5,559.75 L384.5,559.75 Z M390.5,559.75 L390,559.75 L390,558.75 L390.5,558.75 L393.5,558.75 L394,558.75 L394,559.75 L393.5,559.75 L390.5,559.75 Z M396.5,559.75 L396,559.75 L396,558.75 L396.5,558.75 L399.5,558.75 L400,558.75 L400,559.75 L399.5,559.75 L396.5,559.75 Z M402.5,559.75 L402,559.75 L402,558.75 L402.5,558.75 L405.5,558.75 L406,558.75 L406,559.75 L405.5,559.75 L402.5,559.75 Z M408.5,559.75 L408,559.75 L408,558.75 L408.5,558.75 L411.5,558.75 L412,558.75 L412,559.75 L411.5,559.75 L408.5,559.75 Z M414.5,559.75 L414,559.75 L414,558.75 L414.5,558.75 L417.5,558.75 L418,558.75 L418,559.75 L417.5,559.75 L414.5,559.75 Z M420.5,559.75 L420,559.75 L420,558.75 L420.5,558.75 L423.5,558.75 L424,558.75 L424,559.75 L423.5,559.75 L420.5,559.75 Z M426.5,559.75 L426,559.75 L426,558.75 L426.5,558.75 L429.5,558.75 L430,558.75 L430,559.75 L429.5,559.75 L426.5,559.75 Z M432.5,559.75 L432,559.75 L432,558.75 L432.5,558.75 L435.5,558.75 L436,558.75 L436,559.75 L435.5,559.75 L432.5,559.75 Z M438.5,559.75 L438,559.75 L438,558.75 L438.5,558.75 L441.5,558.75 L442,558.75 L442,559.75 L441.5,559.75 L438.5,559.75 Z M444.5,559.75 L444,559.75 L444,558.75 L444.5,558.75 L447.5,558.75 L448,558.75 L448,559.75 L447.5,559.75 L444.5,559.75 Z M450.5,559.75 L450,559.75 L450,558.75 L450.5,558.75 L453.5,558.75 L454,558.75 L454,559.75 L453.5,559.75 L450.5,559.75 Z M456.5,559.75 L456,559.75 L456,558.75 L456.5,558.75 L459.5,558.75 L460,558.75 L460,559.75 L459.5,559.75 L456.5,559.75 Z M462.5,559.75 L462,559.75 L462,558.75 L462.5,558.75 L465.5,558.75 L466,558.75 L466,559.75 L465.5,559.75 L462.5,559.75 Z M468.5,559.75 L468,559.75 L468,558.75 L468.5,558.75 L471.5,558.75 L472,558.75 L472,559.75 L471.5,559.75 L468.5,559.75 Z M474.5,559.75 L474,559.75 L474,558.75 L474.5,558.75 L477.5,558.75 L478,558.75 L478,559.75 L477.5,559.75 L474.5,559.75 Z M480.5,559.75 L480,559.75 L480,558.75 L480.5,558.75 L483.5,558.75 L484,558.75 L484,559.75 L483.5,559.75 L480.5,559.75 Z M486.5,559.75 L486,559.75 L486,558.75 L486.5,558.75 L489.5,558.75 L490,558.75 L490,559.75 L489.5,559.75 L486.5,559.75 Z M492.5,559.75 L492,559.75 L492,558.75 L492.5,558.75 L495.5,558.75 L496,558.75 L496,559.75 L495.5,559.75 L492.5,559.75 Z M498.5,559.75 L498,559.75 L498,558.75 L498.5,558.75 L501.5,558.75 L502,558.75 L502,559.75 L501.5,559.75 L498.5,559.75 Z M504.5,559.75 L504,559.75 L504,558.75 L504.5,558.75 L507.5,558.75 L508,558.75 L508,559.75 L507.5,559.75 L504.5,559.75 Z M510.5,559.75 L510,559.75 L510,558.75 L510.5,558.75 L513.5,558.75 L514,558.75 L514,559.75 L513.5,559.75 L510.5,559.75 Z M516.5,559.75 L516,559.75 L516,558.75 L516.5,558.75 L519.5,558.75 L520,558.75 L520,559.75 L519.5,559.75 L516.5,559.75 Z M522.5,559.75 L522,559.75 L522,558.75 L522.5,558.75 L525.5,558.75 L526,558.75 L526,559.75 L525.5,559.75 L522.5,559.75 Z M528.5,559.75 L528,559.75 L528,558.75 L528.5,558.75 L531.5,558.75 L532,558.75 L532,559.75 L531.5,559.75 L528.5,559.75 Z M534.5,559.75 L534,559.75 L534,558.75 L534.5,558.75 L537.5,558.75 L538,558.75 L538,559.75 L537.5,559.75 L534.5,559.75 Z M540.5,559.75 L540,559.75 L540,558.75 L540.5,558.75 L543.5,558.75 L544,558.75 L544,559.75 L543.5,559.75 L540.5,559.75 Z M546.5,559.75 L546,559.75 L546,558.75 L546.5,558.75 L549.5,558.75 L550,558.75 L550,559.75 L549.5,559.75 L546.5,559.75 Z M552.5,559.75 L552,559.75 L552,558.75 L552.5,558.75 L555.5,558.75 L556,558.75 L556,559.75 L555.5,559.75 L552.5,559.75 Z M558.5,559.75 L558,559.75 L558,558.75 L558.5,558.75 L561.5,558.75 L562.5,558.75 L563,558.75 L563,559.75 L562.5,559.75 L561.5,559.75 L558.5,559.75 Z" fill="#FFFFFF" fill-rule="nonzero" opacity="0.5"></path>
                        <text id="Relying-party’s-scri" font-family="Helvetica" font-size="12" font-weight="normal" line-spacing="18" fill="#FFFFFF">
                            <tspan x="438" y="235">Relying party’s script</tspan>
                            <tspan x="438" y="253">running on the user agent calls</tspan>
                            <tspan x="438" y="271">navigator.credentials.create</tspan>
                            <tspan x="438" y="289">with this data</tspan>
                        </text>
                        <text id="Challenge-+create-ne" font-family="Helvetica" font-size="12" font-weight="normal" line-spacing="18" fill="#FFFFFF">
                            <tspan x="251.265625" y="423">Challenge + create new credentials command</tspan>
                        </text>
                        <text id="Authorization-reques" font-family="Helvetica" font-size="12" font-weight="normal" line-spacing="18" fill="#FFFFFF">
                            <tspan x="172" y="483">Authorization request (optional)</tspan>
                        </text>
                        <text id="Authorized" font-family="Helvetica" font-size="12" font-weight="normal" line-spacing="18" fill="#FFFFFF">
                            <tspan x="258" y="545">Authorized</tspan>
                        </text>
                        <text id="New-credentials-+-si" font-family="Helvetica" font-size="12" font-weight="normal" line-spacing="18" fill="#FFFFFF">
                            <tspan x="281" y="603">New credentials + signed challenge</tspan>
                        </text>
                        <text id="Credentials-(public" font-family="Helvetica" font-size="12" font-weight="normal" line-spacing="18" fill="#FFFFFF">
                            <tspan x="219.136719" y="648">Credentials (public key) + </tspan>
                            <tspan x="241.964844" y="666">signed challenge</tspan>
                        </text>
                        <text id="Registred" font-family="Helvetica" font-size="12" font-weight="normal" line-spacing="18" fill="#FFFFFF">
                            <tspan x="250" y="711">Registered</tspan>
                        </text>
                        <text id="Registered" font-family="Helvetica" font-size="12" font-weight="normal" line-spacing="18" fill="#FFFFFF">
                            <tspan x="65" y="742">Registered</tspan>
                        </text>
                        <text id="HTTP-GET" font-family="Helvetica" font-size="12" font-weight="normal" line-spacing="18" fill="#FFFFFF">
                            <tspan x="244" y="195">HTTP GET</tspan>
                        </text>
                        <text id="HTTP" font-family="Helvetica" font-size="12" font-weight="normal" line-spacing="18" fill="#FFFFFF">
                            <tspan x="259" y="241">HTTP</tspan>
                        </text>
                        <text id="Get-challenge" font-family="Helvetica" font-size="12" font-weight="normal" line-spacing="18" fill="#FFFFFF">
                            <tspan x="227" y="307">Get challenge</tspan>
                        </text>
                        <text id="Click-register-butto" font-family="Helvetica" font-size="12" font-weight="normal" line-spacing="18" fill="#FFFFFF">
                            <tspan x="34" y="292">Click register button</tspan>
                        </text>
                        <text id="Challenge" font-family="Helvetica" font-size="12" font-weight="normal" line-spacing="18" fill="#FFFFFF">
                            <tspan x="244" y="352">Challenge</tspan>
                        </text>
                    </g>
                    <g id="User" transform="translate(64.000000, 64.000000)">
                        <text font-family="Helvetica" font-size="12" font-weight="normal" line-spacing="22" letter-spacing="0.8571429" fill="#FFFFFF">
                            <tspan x="14.1157923" y="94">USER</tspan>
                        </text>
                        <g id="Group-6">
                            <mask id="mask-6" fill="white">
                                <use xlink:href="#path-5"></use>
                            </mask>
                            <use id="Mask" fill="#595B5C" fill-rule="nonzero" xlink:href="#path-5"></use>
                            <path d="M32,12.8 L32,12.8 C37.4983015,12.8 41.9555556,17.257254 41.9555556,22.7555556 L41.9555556,27.0222222 C41.9555556,32.5205237 37.4983015,36.9777778 32,36.9777778 L32,36.9777778 C26.5016985,36.9777778 22.0444444,32.5205237 22.0444444,27.0222222 L22.0444444,22.7555556 C22.0444444,17.257254 26.5016985,12.8 32,12.8 Z" id="Rectangle-11" fill="#2F3132" fill-rule="nonzero" mask="url(#mask-6)"></path>
                            <path d="M32,40.5333333 L32,40.5333333 C45.353018,40.5333333 56.1777778,51.3580932 56.1777778,64.7111111 L56.1777778,66.1333333 C56.1777778,79.4863513 45.353018,90.3111111 32,90.3111111 L32,90.3111111 C18.646982,90.3111111 7.82222222,79.4863513 7.82222222,66.1333333 L7.82222222,64.7111111 C7.82222222,51.3580932 18.646982,40.5333333 32,40.5333333 Z" id="Rectangle-16" fill="#2F3132" fill-rule="nonzero" mask="url(#mask-6)"></path>
                        </g>
                    </g>
                    <g id="Relying-Pary" transform="translate(415.000000, 64.000000)">
                        <text id=":RELYING-PARTY" font-family="Helvetica" font-size="12" font-weight="normal" line-spacing="22" letter-spacing="0.8571429" fill="#FFFFFF">
                            <tspan x="0.311523138" y="94">:RELYING PARTY</tspan>
                        </text>
                        <g id="Group-5" transform="translate(24.000000, 0.000000)" fill-rule="nonzero">
                            <path d="M2,38.1538462 L60,38.1538462 C61.1045695,38.1538462 62,39.0492767 62,40.1538462 L62,45.6923077 C62,46.7968772 61.1045695,47.6923077 60,47.6923077 L2,47.6923077 C0.8954305,47.6923077 6.25798147e-16,46.7968772 0,45.6923077 L0,40.1538462 C-1.3527075e-16,39.0492767 0.8954305,38.1538462 2,38.1538462 Z" id="Rectangle-8" fill="#595B5C"></path>
                            <path d="M2,25.4358974 L60,25.4358974 C61.1045695,25.4358974 62,26.3313279 62,27.4358974 L62,32.974359 C62,34.0789285 61.1045695,34.974359 60,34.974359 L2,34.974359 C0.8954305,34.974359 1.3527075e-16,34.0789285 0,32.974359 L0,27.4358974 C-1.3527075e-16,26.3313279 0.8954305,25.4358974 2,25.4358974 Z" id="Rectangle-8" fill="#595B5C"></path>
                            <path d="M2,12.7179487 L60,12.7179487 C61.1045695,12.7179487 62,13.6133792 62,14.7179487 L62,20.2564103 C62,21.3609798 61.1045695,22.2564103 60,22.2564103 L2,22.2564103 C0.8954305,22.2564103 1.3527075e-16,21.3609798 0,20.2564103 L0,14.7179487 C-1.3527075e-16,13.6133792 0.8954305,12.7179487 2,12.7179487 Z" id="Rectangle-8" fill="#595B5C"></path>
                            <path d="M2,0 L60,0 C61.1045695,-2.02906125e-16 62,0.8954305 62,2 L62,7.53846154 C62,8.64303104 61.1045695,9.53846154 60,9.53846154 L2,9.53846154 C0.8954305,9.53846154 6.25798147e-16,8.64303104 0,7.53846154 L0,2 C-1.3527075e-16,0.8954305 0.8954305,-2.41183085e-16 2,-4.4408921e-16 Z" id="Rectangle-8" fill="#595B5C"></path>
                            <circle id="Oval-6" fill="#34E27A" cx="49.2820513" cy="4.76923077" r="1.58974359"></circle>
                            <circle id="Oval-6" fill="#000000" cx="49.2820513" cy="17.4871795" r="1.58974359"></circle>
                            <circle id="Oval-6" fill="#000000" cx="49.2820513" cy="30.2051282" r="1.58974359"></circle>
                            <circle id="Oval-6" fill="#000000" cx="49.2820513" cy="42.9230769" r="1.58974359"></circle>
                            <path d="M2,50.9606335 L60,50.9606335 C61.1045695,50.9606335 62,51.856064 62,52.9606335 L62,58.499095 C62,59.6036645 61.1045695,60.499095 60,60.499095 L2,60.499095 C0.8954305,60.499095 1.3527075e-16,59.6036645 0,58.499095 L0,52.9606335 C-1.3527075e-16,51.856064 0.8954305,50.9606335 2,50.9606335 Z" id="Rectangle-8" fill="#595B5C"></path>
                            <circle id="Oval-6" fill="#000000" cx="49.2820513" cy="55.7298643" r="1.58974359"></circle>
                        </g>
                    </g>
                    <g id="Authenticator" transform="translate(608.000000, 81.000000)">
                        <text id=":Authenticator" font-family="Helvetica" font-size="12" font-weight="normal" letter-spacing="0.8571429" fill="#FFFFFF">
                            <tspan x="0.880859075" y="83">:AUTHENTICATOR</tspan>
                        </text>
                        <g id="YubiKey" transform="translate(16.000000, 0.000000)" fill-rule="nonzero">
                            <rect id="Rectangle-6" fill="#595B5C" x="0" y="0" width="78" height="41" rx="2"></rect>
                            <path d="M80,8 L98,8 C99.1045695,8 100,8.8954305 100,10 L100,31 C100,32.1045695 99.1045695,33 98,33 L80,33 L80,8 Z" id="Rectangle-5" fill="#595B5C"></path>
                            <path d="M80.5,14.5 L96.5,14.5" id="Line-2" stroke="#000000" stroke-linecap="square"></path>
                            <path d="M80.5,26.5 L96.5,26.5" id="Line-2" stroke="#000000" stroke-linecap="square"></path>
                            <path d="M80.3235294,18.5 L90.6764706,18.5" id="Line-2" stroke="#000000" stroke-linecap="square"></path>
                            <path d="M80.3235294,22.5 L90.6764706,22.5" id="Line-2" stroke="#000000" stroke-linecap="square"></path>
                            <circle id="Oval-4" stroke="#34E27A" cx="39" cy="21" r="13"></circle>
                        </g>
                    </g>
                    <rect id="Rectangle-21" fill="#A0A2A2" fill-rule="nonzero" x="94" y="255" width="6" height="574" rx="3"></rect>
                    <rect id="Rectangle-21" fill="#A0A2A2" fill-rule="nonzero" x="272" y="255" width="6" height="73" rx="3"></rect>
                    <rect id="Rectangle-21" fill="#A0A2A2" fill-rule="nonzero" x="467" y="267" width="6" height="50" rx="3"></rect>
                    <rect id="Rectangle-21" fill="#A0A2A2" fill-rule="nonzero" x="467" y="722" width="6" height="80" rx="3"></rect>
                    <rect id="Rectangle-21" fill="#A0A2A2" fill-rule="nonzero" x="272" y="368" width="6" height="148" rx="3"></rect>
                    <rect id="Rectangle-21" fill="#A0A2A2" fill-rule="nonzero" x="272" y="674" width="6" height="153" rx="3"></rect>
                    <rect id="Rectangle-21" fill="#A0A2A2" fill-rule="nonzero" x="664" y="503" width="6" height="182" rx="3"></rect>
                    <rect id="Rectangle-21" fill="#A0A2A2" fill-rule="nonzero" x="467" y="368" width="6" height="69" rx="3"></rect>
                </g>
            </g>
        </g>
    </g>
</svg>
