<?xml version="1.0" encoding="UTF-8"?>
<svg width="161px" height="59px" viewBox="0 0 161 59" version="1.1" xmlns="http://www.w3.org/2000/svg" xmlns:xlink="http://www.w3.org/1999/xlink">
    <!-- Generator: Sketch 52.5 (67469) - http://www.bohemiancoding.com/sketch -->
    <title>Logo</title>
    <desc>Created with Sketch.</desc>
    <g id="Page-1" stroke="none" stroke-width="1" fill="none" fill-rule="evenodd">
        <g id="Logo">
            <g id="Group-4">
                <path d="M151.139558,15.2526886 C148.329759,15.2526886 145.953361,16.568756 144.267064,19.0580806 C142.590855,21.5325363 141.704923,24.9866081 141.704923,29.0461538 C141.704923,33.1056996 142.590855,36.5597714 144.267064,39.0338813 C145.953361,41.5235516 148.329759,42.8392733 151.139558,42.8392733 C153.949357,42.8392733 156.325755,41.5235516 158.012052,39.0338813 C159.687914,36.5597714 160.573845,33.1056996 160.573845,29.0461538 C160.573845,24.9866081 159.687914,21.5325363 158.012052,19.0580806 C156.325755,16.568756 153.949357,15.2526886 151.139558,15.2526886 L151.139558,15.2526886 L151.139558,15.2526886 Z M151.139558,39.4215092 C149.796225,39.4215092 148.734985,38.6659634 147.894272,37.1113026 C146.878946,35.2333304 146.31963,32.3691722 146.31963,29.0461538 C146.31963,25.7231355 146.878946,22.8586315 147.894272,20.9810051 C148.734985,19.4263443 149.796225,18.6704527 151.139558,18.6704527 C152.482543,18.6704527 153.544131,19.4263443 154.384844,20.9810051 C155.40017,22.8586315 155.959139,25.7227897 155.959139,29.0461538 C155.959139,32.3695179 155.40017,35.234022 154.384844,37.1113026 C153.544131,38.6659634 152.482543,39.4215092 151.139558,39.4215092 L151.139558,39.4215092 L151.139558,39.4215092 Z M90.2453951,25.3019663 L90.2453951,37.1666286 C90.2453951,40.2946227 92.8054494,42.8392733 95.9519511,42.8392733 C98.6963572,42.8392733 100.769793,41.4858608 101.533287,40.9035546 C101.575723,40.8710505 101.631376,40.8613685 101.682508,40.8776205 C101.733639,40.8938725 101.773292,40.9339839 101.788945,40.9851604 L102.249476,42.4834579 L105.649896,42.4834579 L105.649896,25.3019663 L101.280412,25.3019663 L101.280412,38.1493568 C101.280412,38.2098696 101.245977,38.2655414 101.192062,38.2935502 C100.37048,38.7147194 98.7495757,39.4218549 97.125889,39.4218549 C95.7418596,39.4218549 94.6148792,38.3021949 94.6148792,36.9256147 L94.6148792,25.3019663 L90.2453951,25.3019663 L90.2453951,25.3019663 L90.2453951,25.3019663 Z M133.998324,42.4831121 L138.368156,42.4831121 L138.368156,30.6184498 C138.368156,27.4904557 135.808102,24.9454593 132.6616,24.9454593 C130.345377,24.9454593 128.487251,25.9354491 127.586014,26.5253626 C127.535578,26.5582125 127.471577,26.5609788 127.419054,26.5326242 C127.366531,26.5042696 127.333139,26.4496352 127.333139,26.3898139 L127.333139,15.6091956 L122.963655,15.6091956 L122.963655,42.4831121 L127.333139,42.4831121 L127.333139,29.6353758 C127.333139,29.574863 127.367575,29.5191912 127.421837,29.4915282 C128.243072,29.0700132 129.864324,28.3632234 131.487662,28.3632234 C132.158285,28.3632234 132.788907,28.6229099 133.263004,29.0942183 C133.737101,29.5655267 133.997977,30.1927853 133.997977,30.8591179 L133.997977,42.4831121 L133.998324,42.4831121 L133.998324,42.4831121 Z M108.799528,28.7193846 L111.459063,28.7193846 C111.549152,28.7193846 111.622197,28.792 111.622197,28.881559 L111.622197,38.3333158 C111.622197,40.8177993 113.655631,42.8389275 116.154815,42.8389275 C117.060921,42.8389275 117.954853,42.7089114 118.814698,42.452337 L118.814698,39.3492396 C118.313122,39.3931546 117.736414,39.4215092 117.328753,39.4215092 C116.591346,39.4215092 115.991681,38.8250256 115.991681,38.0923018 L115.991681,28.8812132 C115.991681,28.7916542 116.064726,28.7190388 116.154815,28.7190388 L118.814698,28.7190388 L118.814698,25.3016205 L116.154815,25.3016205 C116.064726,25.3016205 115.991681,25.2290051 115.991681,25.1394462 L115.991681,19.4661099 L111.622197,19.4661099 L111.622197,25.1394462 C111.622197,25.2290051 111.549152,25.3016205 111.459063,25.3016205 L108.799528,25.3016205 L108.799528,28.7193846 L108.799528,28.7193846 L108.799528,28.7193846 Z M83.2577684,42.4831121 L87.8032562,42.4831121 L80.8904138,18.5169231 C80.336315,16.5950359 78.5446248,15.2526886 76.5334517,15.2526886 C74.5222785,15.2526886 72.7305883,16.5950359 72.1761417,18.5169231 L65.2632992,42.4831121 L69.8091349,42.4831121 L71.8098731,35.5462681 C71.8300474,35.4767648 71.8940488,35.4290462 71.966746,35.4290462 L81.1001573,35.4290462 C81.1728545,35.4290462 81.2372037,35.4767648 81.2570302,35.5462681 L83.2577684,42.4831121 L83.2577684,42.4831121 L83.2577684,42.4831121 Z M80.0211779,32.0116278 L73.0464211,32.0116278 C72.9952895,32.0116278 72.9469407,31.9877685 72.9159835,31.9466198 C72.8853742,31.9065084 72.8756348,31.8536029 72.8895482,31.8048469 L76.3769266,19.7140396 C76.3971009,19.6445363 76.4611023,19.5968176 76.5337995,19.5968176 C76.6064967,19.5968176 76.670498,19.6445363 76.6903246,19.7140396 L80.1780508,31.8048469 C80.1919641,31.8539487 80.1822248,31.9065084 80.1512676,31.9466198 C80.1206583,31.9877685 80.0723094,32.0116278 80.0211779,32.0116278 L80.0211779,32.0116278 L80.0211779,32.0116278 Z" id="Shape" fill="#FFFFFF"></path>
                <path d="M41.5852311,46.9790418 L35.724237,29.0451165 L51.066476,17.9643546 L32.1018992,17.9643546 L26.2405573,0.0311208791 L26.2388182,0.0262798535 L45.2061776,0.0262798535 L51.0689108,17.9626256 L51.0692586,17.9622799 L51.0741283,17.9595136 C54.4787223,28.3649524 50.9722131,40.1998769 41.5852311,46.9790418 L41.5852311,46.9790418 L41.5852311,46.9790418 Z M10.8944923,46.9790418 L10.8896226,46.9824996 L26.2356877,58.0660278 L41.5852311,46.9793875 L26.2405573,35.8955136 L10.8944923,46.9790418 L10.8944923,46.9790418 L10.8944923,46.9790418 Z M1.40942124,17.9598593 L1.40942124,17.9598593 C-2.17465489,28.9285861 1.98578131,40.5511971 10.8913618,46.9811165 L10.8927531,46.9755839 L16.7544428,29.042696 L1.41568224,17.9640088 L20.3757371,17.9640088 L26.2374268,0.0307750916 L26.2388182,0.0259340659 L7.27041529,0.0259340659 L1.40942124,17.9598593 L1.40942124,17.9598593 L1.40942124,17.9598593 Z" id="Shape" fill="#EB5424"></path>
            </g>
        </g>
    </g>
</svg>