<?xml version="1.0" encoding="UTF-8"?>
<svg width="22px" height="24px" viewBox="0 0 22 24" version="1.1" xmlns="http://www.w3.org/2000/svg" xmlns:xlink="http://www.w3.org/1999/xlink">
    <!-- Generator: Sketch 51.2 (57519) - http://www.bohemiancoding.com/sketch -->
    <title>Logo</title>
    <desc>Created with Sketch.</desc>
    <defs></defs>
    <g id="Lock-and-Feeling" stroke="none" stroke-width="1" fill="none" fill-rule="evenodd">
        <g id="UI_Tutorial-Step-byt-Step" transform="translate(-202.000000, -67.000000)" fill="#FFFFFF">
            <g id="Crafted-by" transform="translate(120.000000, 62.000000)">
                <path d="M99.3369544,24.4154508 L96.886099,16.9996425 L103.301668,12.4176671 L95.3713685,12.4176671 L92.9203676,5.00214478 L92.9196404,5.00014299 L100.851103,5.00014299 L103.302686,12.4169521 L103.302831,12.4168092 L103.304868,12.4156653 C104.728545,16.7183897 103.26225,21.6122169 99.3369544,24.4154508 L99.3369544,24.4154508 L99.3369544,24.4154508 Z M86.503199,24.4154508 L86.5011627,24.4168806 L92.9183313,29 L99.3369544,24.4155938 L92.9203676,19.8323314 L86.503199,24.4154508 L86.503199,24.4154508 L86.503199,24.4154508 Z M82.5368858,12.4158083 L82.5368858,12.4158083 C81.038155,16.9514564 82.7778987,21.7574904 86.5018899,24.4163087 L86.5024717,24.4140209 L88.9536181,16.9986416 L82.5395039,12.4175241 L90.4679122,12.4175241 L92.9190585,5.0020018 L92.9196404,5 L84.9877413,5 L82.5368858,12.4158083 L82.5368858,12.4158083 L82.5368858,12.4158083 Z" id="Logo"></path>
            </g>
        </g>
    </g>
</svg>