<?xml version="1.0" encoding="UTF-8"?>
<svg width="18px" height="20px" viewBox="0 0 18 20" version="1.1" xmlns="http://www.w3.org/2000/svg" xmlns:xlink="http://www.w3.org/1999/xlink">
    <!-- Generator: Sketch 51.2 (57519) - http://www.bohemiancoding.com/sketch -->
    <title>Logo</title>
    <desc>Created with Sketch.</desc>
    <defs></defs>
    <g id="Lock-and-Feeling" stroke="none" stroke-width="1" fill="none" fill-rule="evenodd">
        <g id="UI_Tutorial-Step-byt-Step" transform="translate(-193.000000, -8720.000000)" fill="#E95424">
            <path d="M207.290335,8736.17954 L205.270168,8729.9997 L210.558331,8726.18139 L204.021621,8726.18139 L202.001334,8720.00179 L202.000734,8720.00012 L208.538403,8720.00012 L210.55917,8726.18079 L210.55929,8726.18067 L210.560968,8726.17972 C211.734463,8729.76532 210.52584,8733.84351 207.290335,8736.17954 L207.290335,8736.17954 L207.290335,8736.17954 Z M196.711853,8736.17954 L196.710174,8736.18073 L201.999655,8740 L207.290335,8736.17966 L202.001334,8732.36028 L196.711853,8736.17954 L196.711853,8736.17954 L196.711853,8736.17954 Z M193.442539,8726.17984 L193.442539,8726.17984 C192.20718,8729.95955 193.641199,8733.96458 196.710774,8736.18026 L196.711253,8736.17835 L198.73166,8729.99887 L193.444697,8726.18127 L199.979848,8726.18127 L202.000255,8720.00167 L202.000734,8720 L195.462706,8720 L193.442539,8726.17984 L193.442539,8726.17984 L193.442539,8726.17984 Z" id="Logo"></path>
        </g>
    </g>
</svg>