<?xml version="1.0" encoding="UTF-8"?>
<svg width="110px" height="110px" viewBox="0 0 110 110" version="1.1" xmlns="http://www.w3.org/2000/svg" xmlns:xlink="http://www.w3.org/1999/xlink">
    <!-- Generator: Sketch 62 (91390) - https://sketch.com -->
    <title>platform</title>
    <desc>Created with Sketch.</desc>
    <defs>
        <path d="M2.60150943,38.85856 C1.92396226,38.85856 1.31773585,38.3721867 1.17866038,37.6681067 C-0.0777735849,31.3059067 -0.260150943,24.85236 0.636962264,18.4866933 C1.50384906,12.3340533 3.357,6.39704 6.14445283,0.840493333 C6.51022642,0.111453333 7.38577358,-0.176973333 8.1,0.196386667 C8.81422642,0.569746667 9.09679245,1.46345333 8.73101887,2.19249333 C6.09011321,7.45697333 4.33443396,13.0812933 3.51322642,18.9091067 C2.66366038,24.9385067 2.83669811,31.0526667 4.02741509,37.0820667 C4.18584906,37.8849467 3.67675472,38.6672 2.89018868,38.82892 C2.79322642,38.8488533 2.69660377,38.85856 2.60150943,38.85856" id="path-1"></path>
        <path d="M1.53067797,24.9484797 C1.2340678,24.9484797 0.934915254,24.8581081 0.677118644,24.6706081 C0.03,24.2001689 -0.111694915,23.2959459 0.360338983,22.6511824 C8.50271186,11.5302365 20.4505085,3.90591216 34.0030508,1.18293919 C46.0277966,-1.23327703 58.189322,0.329391892 69.1735593,5.70253378 C69.8923729,6.05422297 70.1891525,6.92027027 69.8362712,7.63682432 C69.4833898,8.3535473 68.6147458,8.64915541 67.8954237,8.29763514 C57.4908475,3.20777027 45.9691525,1.72753378 34.5762712,4.01672297 C21.7364407,6.5964527 10.4171186,13.8194257 2.70338983,24.3548986 C2.41949153,24.7427365 1.97813559,24.9484797 1.53067797,24.9484797" id="path-3"></path>
        <path d="M23.3889456,35.9880561 C22.7103741,35.9880561 22.1032313,35.5161869 21.9639456,34.8328598 C19.2960884,21.7392897 11.7414966,10.3044112 0.692006803,2.63439252 C0.0343537415,2.17766355 -0.124489796,1.28001869 0.336734694,0.629495327 C0.798809524,-0.0215327103 1.70629252,-0.178654206 2.36394558,0.277906542 C14.0270408,8.37386916 22.0008503,20.4436262 24.8171769,34.2640935 C24.9756803,35.0433084 24.4658163,35.8023364 23.6782313,35.9594579 C23.5811224,35.9788037 23.4843537,35.9880561 23.3889456,35.9880561" id="path-5"></path>
        <path d="M3.11729167,14.9877586 C3.10583333,14.9877586 3.094375,14.9875862 3.08270833,14.9874138 C2.09833333,14.9718966 1.31541667,14.2989655 1.33416667,13.4843103 C1.42354167,9.6137931 0.996875,5.71655172 0.066875,1.90103448 C-0.127708333,1.10241379 0.496875,0.324310345 1.461875,0.163275862 C2.42791667,0.00189655172 3.36708333,0.518965517 3.56166667,1.31758621 C4.543125,5.34310345 4.99291667,9.45551724 4.89916667,13.5405172 C4.88041667,14.3455172 4.08604167,14.9877586 3.11729167,14.9877586" id="path-7"></path>
        <path d="M2.27672727,5.93651613 C1.57745455,5.93651613 0.942,5.43116129 0.767272727,4.67612903 C0.557454545,3.7683871 0.366909091,2.86548387 0.201090909,1.99219355 C0.0309090909,1.09567742 0.575818182,0.222193548 1.418,0.0410322581 C2.26127273,-0.140516129 3.08090909,0.439741935 3.25109091,1.33625806 C3.40818182,2.16425806 3.58890909,3.02129032 3.78854545,3.88393548 C3.994,4.77212903 3.48436364,5.66941935 2.65,5.88812903 C2.52509091,5.92083871 2.39981818,5.93651613 2.27672727,5.93651613" id="path-9"></path>
        <path d="M1.5355514,54.9500926 C1.19826168,54.9500926 0.859457944,54.8310957 0.586093458,54.5886883 C-0.0111028037,54.0593981 -0.0699813084,53.141713 0.454878505,52.5389198 C6.28620561,45.8416512 10.6100748,37.7743056 12.9593271,29.2092438 C15.4221308,20.2293056 15.7383925,11.0115432 13.8991963,1.8121142 C13.7419065,1.0258179 14.246243,0.259722222 15.0254579,0.10117284 C15.8050093,-0.0580555556 16.5640374,0.451373457 16.7209907,1.23766975 C18.6506916,10.8884722 18.3186168,20.5601543 15.7336822,29.9841667 C13.2693645,38.9691975 8.73386916,47.4317284 2.61757009,54.4562809 C2.33293458,54.7832253 1.93525234,54.9500926 1.5355514,54.9500926" id="path-11"></path>
        <path d="M1.58,20.946072 C1.20844828,20.946072 0.836896552,20.81016 0.55,20.537496 C-0.0332758621,19.983096 -0.045,19.073208 0.524137931,18.504696 C5.55672414,13.477632 9.43637931,7.612584 12.0553448,1.073352 C12.3517241,0.333816 13.2075862,-0.031416 13.9660345,0.256536 C14.725,0.545328 15.1003448,1.378776 14.8039655,2.118312 C12.0405172,9.018912 7.94655172,15.207528 2.63603448,20.512296 C2.34706897,20.801088 1.96362069,20.946072 1.58,20.946072" id="path-13"></path>
        <path d="M1.8596381,62.8729866 C1.56124762,62.8729866 1.26075238,62.7729973 1.00753333,62.5666005 C0.404761905,62.0749303 0.297904762,61.1667507 0.769047619,60.537933 C12.0848952,45.431445 16.4935619,26.0043056 12.8647905,7.23773727 L12.7715333,6.75535657 C12.4339619,5.57592225 11.7188286,4.56572654 10.7237619,3.87610456 C9.59771429,3.09561394 8.24791429,2.81963003 6.92369524,3.09848525 C4.4167619,3.62545576 2.71514286,6.01202413 2.87170476,8.60380697 L3.00802857,9.30930563 C4.44930476,16.7706676 4.41158095,24.2977319 2.89550476,31.6813995 C2.73521905,32.4617212 1.99855238,32.9586273 1.25071429,32.7917534 C0.502552381,32.6247105 0.0260666667,31.8563807 0.186190476,31.076059 C1.52805714,24.5416247 1.64705714,17.8867641 0.543028571,11.2739598 L0.514533333,11.2793646 L0.246095238,9.88897319 C-0.607142857,5.47238606 2.14264762,1.1549437 6.37564762,0.265174263 C8.4253619,-0.166873995 10.5142571,0.260613941 12.257,1.46859249 C13.999581,2.67640214 15.1873143,4.51961662 15.6011429,6.65891421 L15.8451333,7.91958981 L15.8134,7.93039946 C19.1687143,27.1312118 14.512981,46.8843298 2.95200952,62.3176408 C2.67887619,62.6822976 2.2712,62.8729866 1.8596381,62.8729866" id="path-15"></path>
        <path d="M1.40121698,43.9843101 C1.03475472,43.9843101 0.66909434,43.8291163 0.398858491,43.521969 C-0.118839623,42.9335969 -0.0899716981,42.0101085 0.463490566,41.4595969 C10.6679811,31.307876 15.6446509,16.4868682 13.775934,1.8132093 C13.6744151,1.01455814 14.2007736,0.279348837 14.9518208,0.171224806 C15.7033491,0.0629302326 16.393934,0.622821705 16.4957736,1.42147287 C18.4834906,17.0302171 13.1910377,32.7944961 2.33846226,43.5906977 C2.07383962,43.8540155 1.73720755,43.9843101 1.40121698,43.9843101" id="path-17"></path>
        <path d="M29.5273297,27.8744192 C28.7243956,27.8744192 28.0723736,27.2346108 28.0701593,26.4435689 C28.0577253,21.7675689 27.5700714,17.0459641 26.6216758,12.4100359 L26.5080659,11.8550659 C25.7773516,8.97978443 24.0095,6.51075449 21.4848736,4.85925749 C18.8008187,3.10364072 15.5827802,2.48244311 12.4240165,3.10950898 C7.68254945,4.05077844 3.98043407,7.67015569 2.99218132,12.3302275 C2.82764286,13.1058443 2.05553846,13.6038084 1.26759341,13.4411737 C0.479648352,13.2793772 -0.0255494505,12.5193533 0.138818681,11.7437365 C1.36587363,5.95846707 5.96187912,1.46538922 11.8476209,0.296934132 C15.7696319,-0.482035928 19.7653956,0.289389222 23.0980659,2.4697006 C26.4309066,4.64967665 28.7015714,7.97698204 29.4917308,11.8382994 L29.7267857,12.987976 L29.7054945,12.9968623 C30.5428352,17.445006 30.9730879,21.9602156 30.9848463,26.436024 C30.9870549,27.2282395 30.3363956,27.8722395 29.5314176,27.8744192 C29.5300549,27.8744192 29.5286923,27.8744192 29.5273297,27.8744192" id="path-19"></path>
        <path d="M1.57443478,36.8747163 C1.28504348,36.8747163 0.992521739,36.7912512 0.735478261,36.6172651 C0.0570434783,36.158293 -0.116521739,35.2418977 0.347652174,34.5707349 C7.18469565,24.6815814 11.5187826,13.2009116 12.881913,1.37037674 C12.9749565,0.562572093 13.7137391,-0.0180697674 14.5290435,0.074344186 C15.3453913,0.16624186 15.932,0.896088372 15.8387826,1.70389302 C14.4212174,14.0095767 9.91391304,25.9495628 2.80382609,36.2333256 C2.51565217,36.6504791 2.04904348,36.8747163 1.57443478,36.8747163" id="path-21"></path>
        <path d="M1.53375566,64.8433634 C1.12160181,64.8433634 0.711855204,64.6756701 0.420923077,64.3483247 C-0.111076923,63.7499227 -0.0441900452,62.8447809 0.569828054,62.3264562 C5.76241629,57.9448196 9.71338462,52.2913273 11.995448,45.9772809 C14.1872398,39.9130155 14.7680724,33.390232 13.6942715,27.0267655 L13.6824072,27.0287758 L13.3999005,25.6646134 C12.2415023,20.0700902 13.388724,14.371366 16.6304163,9.61832474 C19.8715928,4.86545103 24.8189864,1.62684278 30.5611131,0.498891753 C32.5580905,0.106378866 34.592724,-0.0152448454 36.6086154,0.137203608 C37.4188235,0.198685567 38.0244163,0.888221649 37.9613122,1.67760309 C37.8982081,2.46681701 37.1921991,3.05650773 36.3806154,2.99552835 C34.6357104,2.86301546 32.8737828,2.96889175 31.1428054,3.3091366 C26.1709955,4.28581186 21.8874842,7.08985825 19.0811584,11.2049613 C16.4995656,14.9902062 15.4522443,19.4686727 16.0815656,23.9320619 L16.3216018,25.0915077 C17.8324887,32.3909407 17.29619,39.9423325 14.7708235,46.9294974 C12.3192217,53.712616 8.07474208,59.7862629 2.49630769,64.4935696 C2.2179276,64.7282732 1.87506787,64.8433634 1.53375566,64.8433634" id="path-23"></path>
        <path d="M2.01732558,72.9205935 C1.76093023,72.9205935 1.50087209,72.8566975 1.26383721,72.7223303 C0.552732558,72.31906 0.314651163,71.4353048 0.731511628,70.748127 C10.8730814,54.0387136 14.2749419,34.3728845 10.3105814,15.3731594 L10.1801163,14.7481917 C8.93319767,9.67292148 5.54755814,5.33658661 0.811918605,2.7836097 C0.0919186047,2.3955127 -0.165872093,1.51698383 0.235639535,0.821039261 C0.636802326,0.125431871 1.54569767,-0.124251732 2.26569767,0.263845266 C7.95610465,3.33169977 11.9586628,8.62951039 13.247093,14.7989376 L13.5029651,16.0242587 L13.4827326,16.0311709 C17.1971512,35.3449815 13.6013372,55.245321 3.30610465,72.2079584 C3.02825581,72.6658522 2.52959302,72.9205935 2.01732558,72.9205935" id="path-25"></path>
        <path d="M1.49145455,16.92656 C1.07342857,16.92656 0.658779221,16.74483 0.373116883,16.39395 C-0.132363636,15.77226 -0.0418701299,14.85596 0.575376623,14.34698 C4.85338961,10.81846 8.17412987,6.20772 10.1784935,1.01286 C10.4673636,0.26401 11.3044286,-0.10727 12.0481299,0.18377 C12.7918312,0.47481 13.1605584,1.31767 12.8715195,2.06635 C10.6873506,7.72718 7.06845455,12.75204 2.40601299,16.59727 C2.13774026,16.81895 1.81358442,16.92656 1.49145455,16.92656" id="path-27"></path>
        <path d="M55.2621633,55.934864 C55.1842099,55.934864 55.1049038,55.9286042 55.0254286,55.9154079 C54.2369329,55.7856435 53.7029271,55.0408943 53.8326239,54.2521571 C55.5141166,44.0319033 55.3201633,33.6544773 53.2566822,23.4081692 L53.1782216,23.0183686 C51.7703265,16.5386103 47.966,10.9626344 42.433172,7.28473716 C36.7907697,3.53409063 30.0259067,2.20633233 23.3860058,3.54661027 C16.7435685,4.88621148 11.0208455,8.73312387 7.27164431,14.3789728 C3.76492711,19.6598912 2.37732362,25.923432 3.30904373,32.1489063 L3.56708455,33.4314924 C4.27695044,36.9601692 4.44469388,40.5414622 4.06507289,44.0760604 C3.9798484,44.8708882 3.26609329,45.4457764 2.47201749,45.3605076 C1.6774344,45.2752387 1.10267638,44.5616193 1.18790087,43.7666224 C1.48500292,41.0001208 1.41618076,38.2007976 0.983970845,35.4256677 L0.698874636,34.0111178 C-0.793737609,26.6079517 0.684501458,19.0667311 4.86151603,12.7767976 C9.03836152,6.48686405 15.413965,2.20091843 22.8139534,0.708543807 C30.2117434,-0.784507553 37.7481924,0.694501511 44.0346822,4.87335347 C50.3213411,9.05220544 54.6045481,15.4306224 56.0959767,22.833281 L56.2317609,23.5081571 L56.2271953,23.5137402 C58.2340292,33.884568 58.3894286,44.3800846 56.6879825,54.7221511 C56.5714752,55.4315408 55.9578251,55.934864 55.2621633,55.934864" id="path-29"></path>
        <path d="M1.49019231,17.8926486 C1.27263462,17.8926486 1.05144231,17.8474054 0.842538462,17.7520541 C0.107134615,17.4162162 -0.198346154,16.5857838 0.160096154,15.8969189 C2.61588462,11.1747568 4.59294231,6.2172973 6.03675,1.16205405 C6.24825,0.421945946 7.05963462,-0.0167027027 7.85025,0.180324324 C8.64034615,0.378486486 9.10938462,1.13918919 8.89805769,1.87962162 C7.40526923,7.10578378 5.36140385,12.2309189 2.82253846,17.1123243 C2.56603846,17.6056216 2.03884615,17.8926486 1.49019231,17.8926486" id="path-31"></path>
        <path d="M3.09361905,67.9632159 C2.91622222,67.9632159 2.73585714,67.9325062 2.56020635,67.8675434 C1.78950794,67.5827196 1.40380952,66.7479901 1.69871429,66.003196 C8.09180952,49.8520993 9.62779365,32.3288536 6.14725397,15.302531 L6.06973016,14.9372208 C5.11726984,10.374134 3.20763492,6.16741439 0.394253968,2.43399504 C-0.0913174603,1.78942928 0.0551746032,0.886362283 0.722333333,0.417111663 C1.38949206,-0.0524764268 2.32379365,0.0895980149 2.80953968,0.734163772 C5.75509524,4.64289826 7.79184127,9.02594541 8.86879365,13.7700844 L8.87490476,13.7739653 L9.00096825,14.3679107 C12.6905079,32.0450422 11.1304286,50.257062 4.48939683,67.0348387 C4.26171429,67.6098859 3.69495238,67.9632159 3.09361905,67.9632159" id="path-33"></path>
        <path d="M36.4195683,10.8835399 C36.1001674,10.8837143 35.7792599,10.7730159 35.5130925,10.5455079 C28.1096211,4.22225397 18.4889251,1.72542857 9.11715419,3.69547619 C6.70524229,4.2021746 4.35828194,4.99661905 2.14139207,6.05646032 C1.42223789,6.40007937 0.572176211,6.07095238 0.242563877,5.32085714 C-0.0870484581,4.57093651 0.228669604,3.68412698 0.947823789,3.34015873 C3.36509251,2.18446032 5.92331278,1.31842857 8.55133921,0.766507937 C18.767815,-1.38198413 29.2568194,1.34025397 37.3278855,8.2337619 C37.9400705,8.75652381 38.0299648,9.69780952 37.5285991,10.3361587 C37.2455242,10.6968889 36.8340529,10.8835399 36.4195683,10.8835399" id="path-35"></path>
        <path d="M1.4405035,60.974 C1.02041958,60.974 0.60386014,60.7916667 0.320223776,60.441 C-0.176559441,59.8271667 -0.078041958,58.9293333 0.540251748,58.4361667 C7.62293706,52.7855 11.0628252,43.9263333 9.67988811,35.0906667 L9.45348252,33.9756667 C6.89521678,21.3766667 11.5523916,8.5125 21.6073846,0.4035 C22.2233287,-0.0931666667 23.1276084,0.000166666667 23.6274126,0.611333333 C24.1275524,1.22283333 24.0337343,2.121 23.4181259,2.6175 C14.5277203,9.78716667 10.2375944,21.0081667 12.0404476,32.158 L12.294042,33.4063333 C14.376,43.6566667 10.5615105,54.0996667 2.33907692,60.6595 C2.0739021,60.8713333 1.7561958,60.974 1.4405035,60.974" id="path-37"></path>
        <path d="M1.53633333,28.2720062 C1.13183333,28.2720062 0.729833333,28.1010256 0.447666667,27.7688775 C-0.0615,27.1694475 0.0126666667,26.2714668 0.613666667,25.7630157 C5.52033333,21.61341 7.894,15.2335721 6.927,8.93939074 L6.75616667,8.09563147 C6.32683333,5.9745075 6.06333333,3.7973325 5.97266667,1.62448191 C5.94,0.839268529 6.5515,0.176136618 7.33833333,0.143370882 C8.125,0.1131 8.78966667,0.720846176 8.8225,1.50622588 C8.88916667,3.10858676 9.057,4.7134425 9.3225,6.29251809 L9.572,7.52813559 C11.1035,15.1086631 8.37733333,22.9280312 2.45766667,27.9347021 C2.18966667,28.1610684 1.862,28.2720062 1.53633333,28.2720062" id="path-39"></path>
        <path d="M81.5373367,39.891 C80.8313286,39.891 80.2125551,39.3825 80.105502,38.6746667 C79.8839429,37.208 79.6283367,35.7401667 79.3441041,34.3018333 L79.1991082,33.6173333 C77.1500245,23.6168333 71.2661714,15.0005 62.6307837,9.3555 C53.9959041,3.7105 43.6427551,1.71216667 33.4783041,3.72866667 C25.6598735,5.27966667 18.6238449,9.08466667 13.1307694,14.7321667 C7.7605,20.2535 4.22232857,27.1351667 2.89873265,34.6333333 C2.76186735,35.4093333 2.01232653,35.9295 1.2228102,35.7941667 C0.434140816,35.6595 -0.0941795918,34.9211667 0.042855102,34.1451667 C1.46537347,26.0868333 5.26694286,18.692 11.0366286,12.7601667 C16.9413163,6.68933333 24.5034633,2.5995 32.9054347,0.932666667 C43.8287429,-1.23416667 54.9551469,0.913333333 64.2350551,6.97983333 C73.2178571,12.852 79.4303224,21.7156667 81.816149,32.0246667 L81.8298694,32.0261667 L82.0480408,33.0541667 C82.397149,34.7573333 82.7084837,36.507 82.972898,38.2548333 C83.0906224,39.0338333 82.5443469,39.7593333 81.7526286,39.8753333 C81.6801306,39.8858333 81.6083102,39.891 81.5373367,39.891" id="path-41"></path>
        <path d="M1.39926316,34.9594203 C1.284,34.9594203 1.167,34.9433575 1.05031579,34.9100483 C0.329368421,34.7041063 -0.0991578947,33.9114493 0.0931578947,33.1394203 C2.66005263,22.834372 3.64326316,12.2097585 3.01610526,1.56045894 C2.96905263,0.762898551 3.53478947,0.0757487923 4.27942105,0.0253623188 C5.02421053,-0.0270531401 5.66573684,0.580797101 5.71278947,1.37801932 C6.35857895,12.3402899 5.34615789,23.2773671 2.70378947,33.8849034 C2.54273684,34.5319807 1.99657895,34.9594203 1.39926316,34.9594203" id="path-43"></path>
        <path d="M1.61986455,70.8519143 C1.26586455,70.8519143 0.911184438,70.7242833 0.630976945,70.4661476 C0.0419971182,69.9229976 0.00714121037,69.0079429 0.553443804,68.4220238 C3.07293084,65.7204738 4.20498271,62.004469 3.63249568,58.3917524 L3.52622767,57.8974571 C0.959982709,45.2450881 3.50310375,32.3567286 10.6871614,21.6066524 C17.871219,10.8567452 28.8360375,3.53157381 41.5616744,0.980645238 C46.9065303,-0.0911166667 52.3295994,-0.269461905 57.6797262,0.45017381 C58.4761412,0.557180952 59.0343458,1.28577619 58.9265476,2.07759524 C58.8189193,2.86907619 58.0849049,3.42456667 57.2896801,3.31688333 C52.2614179,2.64069286 47.1634438,2.80855714 42.1368818,3.8165881 C30.1729741,6.21469762 19.8646369,13.1013595 13.1107522,23.2075333 C6.50972334,33.0851548 4.07644092,44.8838333 6.22220461,56.5178595 L6.39495389,57.3225262 C7.34269452,61.9982143 5.9566196,66.8830143 2.68713545,70.3890619 C2.40046686,70.6963905 2.01076081,70.8519143 1.61986455,70.8519143" id="path-45"></path>
        <path d="M35.3377953,71.9151369 C35.2768329,71.9151369 35.2153524,71.9116288 35.1533539,71.9041114 C34.3434006,71.8065522 33.7688346,71.092232 33.8695175,70.3090858 C35.2669891,59.4527889 34.8825635,48.4696984 32.7279842,37.6488167 L32.5278273,36.7320278 C29.2068462,20.7939675 17.1896609,7.80523434 1.1662291,2.83506265 C0.388915732,2.59383759 -0.0390297316,1.78897448 0.210173378,1.03723434 C0.459549185,0.2854942 1.29195319,-0.127962877 2.06857577,0.112593968 C18.6607018,5.25934107 31.2142869,18.4913039 35.1258949,34.8309606 L35.1457552,34.8279536 L35.4376147,36.1650487 C37.8196372,47.585652 38.2786683,59.1920186 36.8022737,70.6622367 C36.7091895,71.3855777 36.0724523,71.9151369 35.3377953,71.9151369" id="path-47"></path>
    </defs>
    <g id="Page-1" stroke="none" stroke-width="1" fill="none" fill-rule="evenodd">
        <g id="354">
            <g id="Group-5" transform="translate(0.000000, 29.000000)">
                <mask id="mask-2" fill="white">
                    <use xlink:href="#path-1"></use>
                </mask>
                <g id="Clip-4"></g>
                <path d="M2.60150943,38.85856 C1.92396226,38.85856 1.31773585,38.3721867 1.17866038,37.6681067 C-0.0777735849,31.3059067 -0.260150943,24.85236 0.636962264,18.4866933 C1.50384906,12.3340533 3.357,6.39704 6.14445283,0.840493333 C6.51022642,0.111453333 7.38577358,-0.176973333 8.1,0.196386667 C8.81422642,0.569746667 9.09679245,1.46345333 8.73101887,2.19249333 C6.09011321,7.45697333 4.33443396,13.0812933 3.51322642,18.9091067 C2.66366038,24.9385067 2.83669811,31.0526667 4.02741509,37.0820667 C4.18584906,37.8849467 3.67675472,38.6672 2.89018868,38.82892 C2.79322642,38.8488533 2.69660377,38.85856 2.60150943,38.85856" id="Fill-3" fill="#595B5C" mask="url(#mask-2)"></path>
            </g>
            <g id="Group-8" transform="translate(10.000000, 0.000000)">
                <mask id="mask-4" fill="white">
                    <use xlink:href="#path-3"></use>
                </mask>
                <g id="Clip-7"></g>
                <path d="M1.53067797,24.9484797 C1.2340678,24.9484797 0.934915254,24.8581081 0.677118644,24.6706081 C0.03,24.2001689 -0.111694915,23.2959459 0.360338983,22.6511824 C8.50271186,11.5302365 20.4505085,3.90591216 34.0030508,1.18293919 C46.0277966,-1.23327703 58.189322,0.329391892 69.1735593,5.70253378 C69.8923729,6.05422297 70.1891525,6.92027027 69.8362712,7.63682432 C69.4833898,8.3535473 68.6147458,8.64915541 67.8954237,8.29763514 C57.4908475,3.20777027 45.9691525,1.72753378 34.5762712,4.01672297 C21.7364407,6.5964527 10.4171186,13.8194257 2.70338983,24.3548986 C2.41949153,24.7427365 1.97813559,24.9484797 1.53067797,24.9484797" id="Fill-6" fill="#595B5C" mask="url(#mask-4)"></path>
            </g>
            <g id="Group-11" transform="translate(84.000000, 9.000000)">
                <mask id="mask-6" fill="white">
                    <use xlink:href="#path-5"></use>
                </mask>
                <g id="Clip-10"></g>
                <path d="M23.3889456,35.9880561 C22.7103741,35.9880561 22.1032313,35.5161869 21.9639456,34.8328598 C19.2960884,21.7392897 11.7414966,10.3044112 0.692006803,2.63439252 C0.0343537415,2.17766355 -0.124489796,1.28001869 0.336734694,0.629495327 C0.798809524,-0.0215327103 1.70629252,-0.178654206 2.36394558,0.277906542 C14.0270408,8.37386916 22.0008503,20.4436262 24.8171769,34.2640935 C24.9756803,35.0433084 24.4658163,35.8023364 23.6782313,35.9594579 C23.5811224,35.9788037 23.4843537,35.9880561 23.3889456,35.9880561" id="Fill-9" fill="#595B5C" mask="url(#mask-6)"></path>
            </g>
            <g id="Group-14" transform="translate(105.000000, 43.000000)">
                <mask id="mask-8" fill="white">
                    <use xlink:href="#path-7"></use>
                </mask>
                <g id="Clip-13"></g>
                <path d="M3.11729167,14.9877586 C3.10583333,14.9877586 3.094375,14.9875862 3.08270833,14.9874138 C2.09833333,14.9718966 1.31541667,14.2989655 1.33416667,13.4843103 C1.42354167,9.6137931 0.996875,5.71655172 0.066875,1.90103448 C-0.127708333,1.10241379 0.496875,0.324310345 1.461875,0.163275862 C2.42791667,0.00189655172 3.36708333,0.518965517 3.56166667,1.31758621 C4.543125,5.34310345 4.99291667,9.45551724 4.89916667,13.5405172 C4.88041667,14.3455172 4.08604167,14.9877586 3.11729167,14.9877586" id="Fill-12" fill="#595B5C" mask="url(#mask-8)"></path>
            </g>
            <g id="Group-17" transform="translate(1.000000, 64.000000)">
                <mask id="mask-10" fill="white">
                    <use xlink:href="#path-9"></use>
                </mask>
                <g id="Clip-16"></g>
                <path d="M2.27672727,5.93651613 C1.57745455,5.93651613 0.942,5.43116129 0.767272727,4.67612903 C0.557454545,3.7683871 0.366909091,2.86548387 0.201090909,1.99219355 C0.0309090909,1.09567742 0.575818182,0.222193548 1.418,0.0410322581 C2.26127273,-0.140516129 3.08090909,0.439741935 3.25109091,1.33625806 C3.40818182,2.16425806 3.58890909,3.02129032 3.78854545,3.88393548 C3.994,4.77212903 3.48436364,5.66941935 2.65,5.88812903 C2.52509091,5.92083871 2.39981818,5.93651613 2.27672727,5.93651613" id="Fill-15" fill="#595B5C" mask="url(#mask-10)"></path>
            </g>
            <g id="Group-20" transform="translate(40.000000, 53.000000)">
                <mask id="mask-12" fill="white">
                    <use xlink:href="#path-11"></use>
                </mask>
                <g id="Clip-19"></g>
                <path d="M1.5355514,54.9500926 C1.19826168,54.9500926 0.859457944,54.8310957 0.586093458,54.5886883 C-0.0111028037,54.0593981 -0.0699813084,53.141713 0.454878505,52.5389198 C6.28620561,45.8416512 10.6100748,37.7743056 12.9593271,29.2092438 C15.4221308,20.2293056 15.7383925,11.0115432 13.8991963,1.8121142 C13.7419065,1.0258179 14.246243,0.259722222 15.0254579,0.10117284 C15.8050093,-0.0580555556 16.5640374,0.451373457 16.7209907,1.23766975 C18.6506916,10.8884722 18.3186168,20.5601543 15.7336822,29.9841667 C13.2693645,38.9691975 8.73386916,47.4317284 2.61757009,54.4562809 C2.33293458,54.7832253 1.93525234,54.9500926 1.5355514,54.9500926" id="Fill-18" fill="#595B5C" mask="url(#mask-12)"></path>
            </g>
            <g id="Group-23" transform="translate(33.000000, 85.000000)">
                <mask id="mask-14" fill="white">
                    <use xlink:href="#path-13"></use>
                </mask>
                <g id="Clip-22"></g>
                <path d="M1.58,20.946072 C1.20844828,20.946072 0.836896552,20.81016 0.55,20.537496 C-0.0332758621,19.983096 -0.045,19.073208 0.524137931,18.504696 C5.55672414,13.477632 9.43637931,7.612584 12.0553448,1.073352 C12.3517241,0.333816 13.2075862,-0.031416 13.9660345,0.256536 C14.725,0.545328 15.1003448,1.378776 14.8039655,2.118312 C12.0405172,9.018912 7.94655172,15.207528 2.63603448,20.512296 C2.34706897,20.801088 1.96362069,20.946072 1.58,20.946072" id="Fill-21" fill="#595B5C" mask="url(#mask-14)"></path>
            </g>
            <g id="Group-26" transform="translate(47.000000, 47.000000)">
                <mask id="mask-16" fill="white">
                    <use xlink:href="#path-15"></use>
                </mask>
                <g id="Clip-25"></g>
                <path d="M1.8596381,62.8729866 C1.56124762,62.8729866 1.26075238,62.7729973 1.00753333,62.5666005 C0.404761905,62.0749303 0.297904762,61.1667507 0.769047619,60.537933 C12.0848952,45.431445 16.4935619,26.0043056 12.8647905,7.23773727 L12.7715333,6.75535657 C12.4339619,5.57592225 11.7188286,4.56572654 10.7237619,3.87610456 C9.59771429,3.09561394 8.24791429,2.81963003 6.92369524,3.09848525 C4.4167619,3.62545576 2.71514286,6.01202413 2.87170476,8.60380697 L3.00802857,9.30930563 C4.44930476,16.7706676 4.41158095,24.2977319 2.89550476,31.6813995 C2.73521905,32.4617212 1.99855238,32.9586273 1.25071429,32.7917534 C0.502552381,32.6247105 0.0260666667,31.8563807 0.186190476,31.076059 C1.52805714,24.5416247 1.64705714,17.8867641 0.543028571,11.2739598 L0.514533333,11.2793646 L0.246095238,9.88897319 C-0.607142857,5.47238606 2.14264762,1.1549437 6.37564762,0.265174263 C8.4253619,-0.166873995 10.5142571,0.260613941 12.257,1.46859249 C13.999581,2.67640214 15.1873143,4.51961662 15.6011429,6.65891421 L15.8451333,7.91958981 L15.8134,7.93039946 C19.1687143,27.1312118 14.512981,46.8843298 2.95200952,62.3176408 C2.67887619,62.6822976 2.2712,62.8729866 1.8596381,62.8729866" id="Fill-24" fill="#D43AFF" mask="url(#mask-16)"></path>
            </g>
            <g id="Group-29" transform="translate(27.000000, 59.000000)">
                <mask id="mask-18" fill="white">
                    <use xlink:href="#path-17"></use>
                </mask>
                <g id="Clip-28"></g>
                <path d="M1.40121698,43.9843101 C1.03475472,43.9843101 0.66909434,43.8291163 0.398858491,43.521969 C-0.118839623,42.9335969 -0.0899716981,42.0101085 0.463490566,41.4595969 C10.6679811,31.307876 15.6446509,16.4868682 13.775934,1.8132093 C13.6744151,1.01455814 14.2007736,0.279348837 14.9518208,0.171224806 C15.7033491,0.0629302326 16.393934,0.622821705 16.4957736,1.42147287 C18.4834906,17.0302171 13.1910377,32.7944961 2.33846226,43.5906977 C2.07383962,43.8540155 1.73720755,43.9843101 1.40121698,43.9843101" id="Fill-27" fill="#595B5C" mask="url(#mask-18)"></path>
            </g>
            <g id="Group-32" transform="translate(40.000000, 40.000000)">
                <mask id="mask-20" fill="white">
                    <use xlink:href="#path-19"></use>
                </mask>
                <g id="Clip-31"></g>
                <path d="M29.5273297,27.8744192 C28.7243956,27.8744192 28.0723736,27.2346108 28.0701593,26.4435689 C28.0577253,21.7675689 27.5700714,17.0459641 26.6216758,12.4100359 L26.5080659,11.8550659 C25.7773516,8.97978443 24.0095,6.51075449 21.4848736,4.85925749 C18.8008187,3.10364072 15.5827802,2.48244311 12.4240165,3.10950898 C7.68254945,4.05077844 3.98043407,7.67015569 2.99218132,12.3302275 C2.82764286,13.1058443 2.05553846,13.6038084 1.26759341,13.4411737 C0.479648352,13.2793772 -0.0255494505,12.5193533 0.138818681,11.7437365 C1.36587363,5.95846707 5.96187912,1.46538922 11.8476209,0.296934132 C15.7696319,-0.482035928 19.7653956,0.289389222 23.0980659,2.4697006 C26.4309066,4.64967665 28.7015714,7.97698204 29.4917308,11.8382994 L29.7267857,12.987976 L29.7054945,12.9968623 C30.5428352,17.445006 30.9730879,21.9602156 30.9848463,26.436024 C30.9870549,27.2282395 30.3363956,27.8722395 29.5314176,27.8744192 C29.5300549,27.8744192 29.5286923,27.8744192 29.5273297,27.8744192" id="Fill-30" fill="#595B5C" mask="url(#mask-20)"></path>
            </g>
            <g id="Group-35" transform="translate(56.000000, 73.000000)">
                <mask id="mask-22" fill="white">
                    <use xlink:href="#path-21"></use>
                </mask>
                <g id="Clip-34"></g>
                <path d="M1.57443478,36.8747163 C1.28504348,36.8747163 0.992521739,36.7912512 0.735478261,36.6172651 C0.0570434783,36.158293 -0.116521739,35.2418977 0.347652174,34.5707349 C7.18469565,24.6815814 11.5187826,13.2009116 12.881913,1.37037674 C12.9749565,0.562572093 13.7137391,-0.0180697674 14.5290435,0.074344186 C15.3453913,0.16624186 15.932,0.896088372 15.8387826,1.70389302 C14.4212174,14.0095767 9.91391304,25.9495628 2.80382609,36.2333256 C2.51565217,36.6504791 2.04904348,36.8747163 1.57443478,36.8747163" id="Fill-33" fill="#595B5C" mask="url(#mask-22)"></path>
            </g>
            <g id="Group-38" transform="translate(20.000000, 33.000000)">
                <mask id="mask-24" fill="white">
                    <use xlink:href="#path-23"></use>
                </mask>
                <g id="Clip-37"></g>
                <path d="M1.53375566,64.8433634 C1.12160181,64.8433634 0.711855204,64.6756701 0.420923077,64.3483247 C-0.111076923,63.7499227 -0.0441900452,62.8447809 0.569828054,62.3264562 C5.76241629,57.9448196 9.71338462,52.2913273 11.995448,45.9772809 C14.1872398,39.9130155 14.7680724,33.390232 13.6942715,27.0267655 L13.6824072,27.0287758 L13.3999005,25.6646134 C12.2415023,20.0700902 13.388724,14.371366 16.6304163,9.61832474 C19.8715928,4.86545103 24.8189864,1.62684278 30.5611131,0.498891753 C32.5580905,0.106378866 34.592724,-0.0152448454 36.6086154,0.137203608 C37.4188235,0.198685567 38.0244163,0.888221649 37.9613122,1.67760309 C37.8982081,2.46681701 37.1921991,3.05650773 36.3806154,2.99552835 C34.6357104,2.86301546 32.8737828,2.96889175 31.1428054,3.3091366 C26.1709955,4.28581186 21.8874842,7.08985825 19.0811584,11.2049613 C16.4995656,14.9902062 15.4522443,19.4686727 16.0815656,23.9320619 L16.3216018,25.0915077 C17.8324887,32.3909407 17.29619,39.9423325 14.7708235,46.9294974 C12.3192217,53.712616 8.07474208,59.7862629 2.49630769,64.4935696 C2.2179276,64.7282732 1.87506787,64.8433634 1.53375566,64.8433634" id="Fill-36" fill="#595B5C" mask="url(#mask-24)"></path>
            </g>
            <g id="Group-41" transform="translate(63.000000, 36.000000)">
                <mask id="mask-26" fill="white">
                    <use xlink:href="#path-25"></use>
                </mask>
                <g id="Clip-40"></g>
                <path d="M2.01732558,72.9205935 C1.76093023,72.9205935 1.50087209,72.8566975 1.26383721,72.7223303 C0.552732558,72.31906 0.314651163,71.4353048 0.731511628,70.748127 C10.8730814,54.0387136 14.2749419,34.3728845 10.3105814,15.3731594 L10.1801163,14.7481917 C8.93319767,9.67292148 5.54755814,5.33658661 0.811918605,2.7836097 C0.0919186047,2.3955127 -0.165872093,1.51698383 0.235639535,0.821039261 C0.636802326,0.125431871 1.54569767,-0.124251732 2.26569767,0.263845266 C7.95610465,3.33169977 11.9586628,8.62951039 13.247093,14.7989376 L13.5029651,16.0242587 L13.4827326,16.0311709 C17.1971512,35.3449815 13.6013372,55.245321 3.30610465,72.2079584 C3.02825581,72.6658522 2.52959302,72.9205935 2.01732558,72.9205935" id="Fill-39" fill="#595B5C" mask="url(#mask-26)"></path>
            </g>
            <g id="Group-44" transform="translate(16.000000, 77.000000)">
                <mask id="mask-28" fill="white">
                    <use xlink:href="#path-27"></use>
                </mask>
                <g id="Clip-43"></g>
                <path d="M1.49145455,16.92656 C1.07342857,16.92656 0.658779221,16.74483 0.373116883,16.39395 C-0.132363636,15.77226 -0.0418701299,14.85596 0.575376623,14.34698 C4.85338961,10.81846 8.17412987,6.20772 10.1784935,1.01286 C10.4673636,0.26401 11.3044286,-0.10727 12.0481299,0.18377 C12.7918312,0.47481 13.1605584,1.31767 12.8715195,2.06635 C10.6873506,7.72718 7.06845455,12.75204 2.40601299,16.59727 C2.13774026,16.81895 1.81358442,16.92656 1.49145455,16.92656" id="Fill-42" fill="#D43AFF" mask="url(#mask-28)"></path>
            </g>
            <g id="Group-47" transform="translate(26.000000, 27.000000)">
                <mask id="mask-30" fill="white">
                    <use xlink:href="#path-29"></use>
                </mask>
                <g id="Clip-46"></g>
                <path d="M55.2621633,55.934864 C55.1842099,55.934864 55.1049038,55.9286042 55.0254286,55.9154079 C54.2369329,55.7856435 53.7029271,55.0408943 53.8326239,54.2521571 C55.5141166,44.0319033 55.3201633,33.6544773 53.2566822,23.4081692 L53.1782216,23.0183686 C51.7703265,16.5386103 47.966,10.9626344 42.433172,7.28473716 C36.7907697,3.53409063 30.0259067,2.20633233 23.3860058,3.54661027 C16.7435685,4.88621148 11.0208455,8.73312387 7.27164431,14.3789728 C3.76492711,19.6598912 2.37732362,25.923432 3.30904373,32.1489063 L3.56708455,33.4314924 C4.27695044,36.9601692 4.44469388,40.5414622 4.06507289,44.0760604 C3.9798484,44.8708882 3.26609329,45.4457764 2.47201749,45.3605076 C1.6774344,45.2752387 1.10267638,44.5616193 1.18790087,43.7666224 C1.48500292,41.0001208 1.41618076,38.2007976 0.983970845,35.4256677 L0.698874636,34.0111178 C-0.793737609,26.6079517 0.684501458,19.0667311 4.86151603,12.7767976 C9.03836152,6.48686405 15.413965,2.20091843 22.8139534,0.708543807 C30.2117434,-0.784507553 37.7481924,0.694501511 44.0346822,4.87335347 C50.3213411,9.05220544 54.6045481,15.4306224 56.0959767,22.833281 L56.2317609,23.5081571 L56.2271953,23.5137402 C58.2340292,33.884568 58.3894286,44.3800846 56.6879825,54.7221511 C56.5714752,55.4315408 55.9578251,55.934864 55.2621633,55.934864" id="Fill-45" fill="#D43AFF" mask="url(#mask-30)"></path>
            </g>
            <g id="Group-50" transform="translate(73.000000, 88.000000)">
                <mask id="mask-32" fill="white">
                    <use xlink:href="#path-31"></use>
                </mask>
                <g id="Clip-49"></g>
                <path d="M1.49019231,17.8926486 C1.27263462,17.8926486 1.05144231,17.8474054 0.842538462,17.7520541 C0.107134615,17.4162162 -0.198346154,16.5857838 0.160096154,15.8969189 C2.61588462,11.1747568 4.59294231,6.2172973 6.03675,1.16205405 C6.24825,0.421945946 7.05963462,-0.0167027027 7.85025,0.180324324 C8.64034615,0.378486486 9.10938462,1.13918919 8.89805769,1.87962162 C7.40526923,7.10578378 5.36140385,12.2309189 2.82253846,17.1123243 C2.56603846,17.6056216 2.03884615,17.8926486 1.49019231,17.8926486" id="Fill-48" fill="#595B5C" mask="url(#mask-32)"></path>
            </g>
            <g id="Group-53" transform="translate(80.000000, 34.000000)">
                <mask id="mask-34" fill="white">
                    <use xlink:href="#path-33"></use>
                </mask>
                <g id="Clip-52"></g>
                <path d="M3.09361905,67.9632159 C2.91622222,67.9632159 2.73585714,67.9325062 2.56020635,67.8675434 C1.78950794,67.5827196 1.40380952,66.7479901 1.69871429,66.003196 C8.09180952,49.8520993 9.62779365,32.3288536 6.14725397,15.302531 L6.06973016,14.9372208 C5.11726984,10.374134 3.20763492,6.16741439 0.394253968,2.43399504 C-0.0913174603,1.78942928 0.0551746032,0.886362283 0.722333333,0.417111663 C1.38949206,-0.0524764268 2.32379365,0.0895980149 2.80953968,0.734163772 C5.75509524,4.64289826 7.79184127,9.02594541 8.86879365,13.7700844 L8.87490476,13.7739653 L9.00096825,14.3679107 C12.6905079,32.0450422 11.1304286,50.257062 4.48939683,67.0348387 C4.26171429,67.6098859 3.69495238,67.9632159 3.09361905,67.9632159" id="Fill-51" fill="#D43AFF" mask="url(#mask-34)"></path>
            </g>
            <g id="Group-56" transform="translate(40.000000, 20.000000)">
                <mask id="mask-36" fill="white">
                    <use xlink:href="#path-35"></use>
                </mask>
                <g id="Clip-55"></g>
                <path d="M36.4195683,10.8835399 C36.1001674,10.8837143 35.7792599,10.7730159 35.5130925,10.5455079 C28.1096211,4.22225397 18.4889251,1.72542857 9.11715419,3.69547619 C6.70524229,4.2021746 4.35828194,4.99661905 2.14139207,6.05646032 C1.42223789,6.40007937 0.572176211,6.07095238 0.242563877,5.32085714 C-0.0870484581,4.57093651 0.228669604,3.68412698 0.947823789,3.34015873 C3.36509251,2.18446032 5.92331278,1.31842857 8.55133921,0.766507937 C18.767815,-1.38198413 29.2568194,1.34025397 37.3278855,8.2337619 C37.9400705,8.75652381 38.0299648,9.69780952 37.5285991,10.3361587 C37.2455242,10.6968889 36.8340529,10.8835399 36.4195683,10.8835399" id="Fill-54" fill="#595B5C" mask="url(#mask-36)"></path>
            </g>
            <g id="Group-59" transform="translate(11.000000, 28.000000)">
                <mask id="mask-38" fill="white">
                    <use xlink:href="#path-37"></use>
                </mask>
                <g id="Clip-58"></g>
                <path d="M1.4405035,60.974 C1.02041958,60.974 0.60386014,60.7916667 0.320223776,60.441 C-0.176559441,59.8271667 -0.078041958,58.9293333 0.540251748,58.4361667 C7.62293706,52.7855 11.0628252,43.9263333 9.67988811,35.0906667 L9.45348252,33.9756667 C6.89521678,21.3766667 11.5523916,8.5125 21.6073846,0.4035 C22.2233287,-0.0931666667 23.1276084,0.000166666667 23.6274126,0.611333333 C24.1275524,1.22283333 24.0337343,2.121 23.4181259,2.6175 C14.5277203,9.78716667 10.2375944,21.0081667 12.0404476,32.158 L12.294042,33.4063333 C14.376,43.6566667 10.5615105,54.0996667 2.33907692,60.6595 C2.0739021,60.8713333 1.7561958,60.974 1.4405035,60.974" id="Fill-57" fill="#595B5C" mask="url(#mask-38)"></path>
            </g>
            <g id="Group-62" transform="translate(7.000000, 55.000000)">
                <mask id="mask-40" fill="white">
                    <use xlink:href="#path-39"></use>
                </mask>
                <g id="Clip-61"></g>
                <path d="M1.53633333,28.2720062 C1.13183333,28.2720062 0.729833333,28.1010256 0.447666667,27.7688775 C-0.0615,27.1694475 0.0126666667,26.2714668 0.613666667,25.7630157 C5.52033333,21.61341 7.894,15.2335721 6.927,8.93939074 L6.75616667,8.09563147 C6.32683333,5.9745075 6.06333333,3.7973325 5.97266667,1.62448191 C5.94,0.839268529 6.5515,0.176136618 7.33833333,0.143370882 C8.125,0.1131 8.78966667,0.720846176 8.8225,1.50622588 C8.88916667,3.10858676 9.057,4.7134425 9.3225,6.29251809 L9.572,7.52813559 C11.1035,15.1086631 8.37733333,22.9280312 2.45766667,27.9347021 C2.18966667,28.1610684 1.862,28.2720062 1.53633333,28.2720062" id="Fill-60" fill="#595B5C" mask="url(#mask-40)"></path>
            </g>
            <g id="Group-65" transform="translate(14.000000, 13.000000)">
                <mask id="mask-42" fill="white">
                    <use xlink:href="#path-41"></use>
                </mask>
                <g id="Clip-64"></g>
                <path d="M81.5373367,39.891 C80.8313286,39.891 80.2125551,39.3825 80.105502,38.6746667 C79.8839429,37.208 79.6283367,35.7401667 79.3441041,34.3018333 L79.1991082,33.6173333 C77.1500245,23.6168333 71.2661714,15.0005 62.6307837,9.3555 C53.9959041,3.7105 43.6427551,1.71216667 33.4783041,3.72866667 C25.6598735,5.27966667 18.6238449,9.08466667 13.1307694,14.7321667 C7.7605,20.2535 4.22232857,27.1351667 2.89873265,34.6333333 C2.76186735,35.4093333 2.01232653,35.9295 1.2228102,35.7941667 C0.434140816,35.6595 -0.0941795918,34.9211667 0.042855102,34.1451667 C1.46537347,26.0868333 5.26694286,18.692 11.0366286,12.7601667 C16.9413163,6.68933333 24.5034633,2.5995 32.9054347,0.932666667 C43.8287429,-1.23416667 54.9551469,0.913333333 64.2350551,6.97983333 C73.2178571,12.852 79.4303224,21.7156667 81.816149,32.0246667 L81.8298694,32.0261667 L82.0480408,33.0541667 C82.397149,34.7573333 82.7084837,36.507 82.972898,38.2548333 C83.0906224,39.0338333 82.5443469,39.7593333 81.7526286,39.8753333 C81.6801306,39.8858333 81.6083102,39.891 81.5373367,39.891" id="Fill-63" fill="#D43AFF" mask="url(#mask-42)"></path>
            </g>
            <g id="Group-68" transform="translate(92.000000, 59.000000)">
                <mask id="mask-44" fill="white">
                    <use xlink:href="#path-43"></use>
                </mask>
                <g id="Clip-67"></g>
                <path d="M1.39926316,34.9594203 C1.284,34.9594203 1.167,34.9433575 1.05031579,34.9100483 C0.329368421,34.7041063 -0.0991578947,33.9114493 0.0931578947,33.1394203 C2.66005263,22.834372 3.64326316,12.2097585 3.01610526,1.56045894 C2.96905263,0.762898551 3.53478947,0.0757487923 4.27942105,0.0253623188 C5.02421053,-0.0270531401 5.66573684,0.580797101 5.71278947,1.37801932 C6.35857895,12.3402899 5.34615789,23.2773671 2.70378947,33.8849034 C2.54273684,34.5319807 1.99657895,34.9594203 1.39926316,34.9594203" id="Fill-66" fill="#595B5C" mask="url(#mask-44)"></path>
            </g>
            <g id="Group-71" transform="translate(4.000000, 7.000000)">
                <mask id="mask-46" fill="white">
                    <use xlink:href="#path-45"></use>
                </mask>
                <g id="Clip-70"></g>
                <path d="M1.61986455,70.8519143 C1.26586455,70.8519143 0.911184438,70.7242833 0.630976945,70.4661476 C0.0419971182,69.9229976 0.00714121037,69.0079429 0.553443804,68.4220238 C3.07293084,65.7204738 4.20498271,62.004469 3.63249568,58.3917524 L3.52622767,57.8974571 C0.959982709,45.2450881 3.50310375,32.3567286 10.6871614,21.6066524 C17.871219,10.8567452 28.8360375,3.53157381 41.5616744,0.980645238 C46.9065303,-0.0911166667 52.3295994,-0.269461905 57.6797262,0.45017381 C58.4761412,0.557180952 59.0343458,1.28577619 58.9265476,2.07759524 C58.8189193,2.86907619 58.0849049,3.42456667 57.2896801,3.31688333 C52.2614179,2.64069286 47.1634438,2.80855714 42.1368818,3.8165881 C30.1729741,6.21469762 19.8646369,13.1013595 13.1107522,23.2075333 C6.50972334,33.0851548 4.07644092,44.8838333 6.22220461,56.5178595 L6.39495389,57.3225262 C7.34269452,61.9982143 5.9566196,66.8830143 2.68713545,70.3890619 C2.40046686,70.6963905 2.01076081,70.8519143 1.61986455,70.8519143" id="Fill-69" fill="#595B5C" mask="url(#mask-46)"></path>
            </g>
            <g id="Group-74" transform="translate(68.000000, 9.000000)">
                <mask id="mask-48" fill="white">
                    <use xlink:href="#path-47"></use>
                </mask>
                <g id="Clip-73"></g>
                <path d="M35.3377953,71.9151369 C35.2768329,71.9151369 35.2153524,71.9116288 35.1533539,71.9041114 C34.3434006,71.8065522 33.7688346,71.092232 33.8695175,70.3090858 C35.2669891,59.4527889 34.8825635,48.4696984 32.7279842,37.6488167 L32.5278273,36.7320278 C29.2068462,20.7939675 17.1896609,7.80523434 1.1662291,2.83506265 C0.388915732,2.59383759 -0.0390297316,1.78897448 0.210173378,1.03723434 C0.459549185,0.2854942 1.29195319,-0.127962877 2.06857577,0.112593968 C18.6607018,5.25934107 31.2142869,18.4913039 35.1258949,34.8309606 L35.1457552,34.8279536 L35.4376147,36.1650487 C37.8196372,47.585652 38.2786683,59.1920186 36.8022737,70.6622367 C36.7091895,71.3855777 36.0724523,71.9151369 35.3377953,71.9151369" id="Fill-72" fill="#595B5C" mask="url(#mask-48)"></path>
            </g>
        </g>
    </g>
</svg>