<?xml version="1.0" encoding="UTF-8"?>
<svg width="18px" height="18px" viewBox="0 0 18 18" version="1.1" xmlns="http://www.w3.org/2000/svg" xmlns:xlink="http://www.w3.org/1999/xlink">
    <!-- Generator: Sketch 51.2 (57519) - http://www.bohemiancoding.com/sketch -->
    <title>helper</title>
    <desc>Created with Sketch.</desc>
    <defs></defs>
    <g id="Lock-and-Feeling" stroke="none" stroke-width="1" fill="none" fill-rule="evenodd">
        <g id="UI_Tutorial-Step-byt-Step" transform="translate(-220.000000, -8357.000000)">
            <g id="helper" transform="translate(221.000000, 8358.000000)">
                <circle id="Oval-2" stroke="#FFFFFF" fill-rule="nonzero" cx="8" cy="8" r="8"></circle>
                <path d="M7.62367865,9.73503699 C7.62706133,9.47679763 7.63720922,9.26429135 7.65412262,9.09751177 C7.67103603,8.93073219 7.70655364,8.78188812 7.76067653,8.65097512 C7.81479942,8.52006211 7.89259992,8.39453098 7.99408034,8.27437794 C8.09556076,8.15422491 8.23086596,8.0116574 8.4,7.84667115 C8.51501115,7.72113813 8.63255754,7.59202039 8.75264271,7.45931406 C8.87272787,7.32660772 8.98266335,7.18762682 9.08245243,7.04236718 C9.18224151,6.89710755 9.26427029,6.74378023 9.32854123,6.58238063 C9.39281216,6.42098104 9.42494715,6.25061735 9.42494715,6.07128447 C9.42494715,5.68033878 9.3183943,5.381754 9.10528541,5.17552118 C8.89217652,4.96928837 8.58773982,4.8661735 8.19196617,4.8661735 C8.03298018,4.8661735 7.87822485,4.88679648 7.72769556,4.92804304 C7.57716627,4.9692896 7.44355238,5.03384847 7.32684989,5.12172159 C7.21014741,5.2095947 7.11627942,5.32077942 7.04524313,5.45527909 C6.97420683,5.58977875 6.93868922,5.75027927 6.93868922,5.93678547 L6,5.93678547 C6.00338268,5.63550623 6.06257871,5.36471763 6.17758985,5.12441157 C6.292601,4.8841055 6.44735632,4.68056573 6.64186047,4.51378615 C6.83636461,4.34700656 7.06638345,4.21968213 7.33192389,4.13180901 C7.59746433,4.0439359 7.88414222,4 8.19196617,4 C8.53361693,4 8.83889929,4.0457292 9.10782241,4.13718897 C9.37674553,4.22864874 9.6042274,4.36224974 9.79027484,4.53799597 C9.97632228,4.71374219 10.1183927,4.92714512 10.2164905,5.17821116 C10.3145882,5.4292772 10.3636364,5.71620551 10.3636364,6.03900471 C10.3636364,6.29724406 10.3213535,6.54023648 10.2367865,6.76798924 C10.1522195,6.995742 10.0439753,7.21093824 9.91205074,7.4135844 C9.78012619,7.61623056 9.63213613,7.80542391 9.46807611,7.98117014 C9.30401609,8.15691637 9.14249551,8.32010685 8.98350951,8.47074647 C8.88202909,8.57475954 8.80338294,8.67339115 8.74756871,8.76664425 C8.69175448,8.85989735 8.65031726,8.95494235 8.62325581,9.05178211 C8.59619437,9.14862187 8.57928122,9.25173673 8.57251586,9.36112979 C8.56575049,9.47052285 8.56236786,9.59515734 8.56236786,9.73503699 L7.62367865,9.73503699 Z M7.51712474,11.4189644 C7.51712474,11.2468048 7.56532721,11.1033406 7.66173362,10.9885676 C7.75814002,10.8737945 7.90274745,10.8164089 8.09556025,10.8164089 C8.28837306,10.8164089 8.43467181,10.8737945 8.53446089,10.9885676 C8.63424997,11.1033406 8.68414376,11.2468048 8.68414376,11.4189644 C8.68414376,11.5839506 8.63424997,11.7220349 8.53446089,11.8332213 C8.43467181,11.9444076 8.28837306,12 8.09556025,12 C7.90274745,12 7.75814002,11.9444076 7.66173362,11.8332213 C7.56532721,11.7220349 7.51712474,11.5839506 7.51712474,11.4189644 Z" id="?" fill="#FFFFFF"></path>
            </g>
        </g>
    </g>
</svg>