<?xml version="1.0" encoding="UTF-8"?>
<svg width="16px" height="14px" viewBox="0 0 16 14" version="1.1" xmlns="http://www.w3.org/2000/svg" xmlns:xlink="http://www.w3.org/1999/xlink">
    <!-- Generator: Sketch 52.5 (67469) - http://www.bohemiancoding.com/sketch -->
    <title>Shape</title>
    <desc>Created with Sketch.</desc>
    <defs>
        <rect id="path-1" x="0" y="0" width="1440" height="227"></rect>
        <filter x="-0.2%" y="-1.5%" width="100.5%" height="103.1%" filterUnits="objectBoundingBox" id="filter-2">
            <feGaussianBlur stdDeviation="1.5" in="SourceAlpha" result="shadowBlurInner1"></feGaussianBlur>
            <feOffset dx="0" dy="-4" in="shadowBlurInner1" result="shadowOffsetInner1"></feOffset>
            <feComposite in="shadowOffsetInner1" in2="SourceAlpha" operator="arithmetic" k2="-1" k3="1" result="shadowInnerInner1"></feComposite>
            <feColorMatrix values="0 0 0 0 0   0 0 0 0 0   0 0 0 0 0  0 0 0 0.5 0" type="matrix" in="shadowInnerInner1"></feColorMatrix>
        </filter>
    </defs>
    <g id="Page-1" stroke="none" stroke-width="1" fill="none" fill-rule="evenodd">
        <g id="UI_Auth0_Banner" transform="translate(-1240.000000, -2290.000000)">
            <g id="Footer" transform="translate(0.000000, 2183.000000)">
                <g id="Group-14" transform="translate(1228.000000, 94.000000)">
                    <path d="M12,24.9624449 C13.5491867,25.9250148 15.2253559,26.4 17.0285076,26.4 C18.1967467,26.4 19.3015962,26.2250055 20.3174563,25.8624168 C21.3333164,25.4998281 22.2095973,25.0124434 22.9332961,24.3998625 C23.6697947,23.774882 24.2921106,23.0749039 24.8126373,22.2873285 C25.333164,21.4997531 25.7269114,20.6747789 25.9808764,19.7998063 C26.2348415,18.9372332 26.3746238,18.0748602 26.3746238,17.2122871 L26.3746238,16.7873004 C27.0349329,16.3123152 27.5810593,15.7497328 28,15.1123527 C27.3776841,15.3749445 26.7555714,15.5499391 26.1206588,15.6249367 C26.8317609,15.2123496 27.3142944,14.6123684 27.5556628,13.8373926 C26.9207502,14.2123809 26.2222448,14.4749727 25.4731495,14.624968 C24.8254371,13.9499891 24.0255489,13.6 23.0730784,13.6 C22.171401,13.6 21.3969092,13.9249898 20.7491968,14.5499703 C20.1142843,15.1875504 19.7841297,15.937527 19.7841297,16.8248992 C19.7841297,17.0374926 19.8223261,17.2874848 19.8857157,17.5748758 C18.5397011,17.4998781 17.2824726,17.1748883 16.1016368,16.574907 C14.9333977,15.9873254 13.9301342,15.1873504 13.1174461,14.1873816 C12.8126881,14.6999656 12.6603091,15.2373488 12.6603091,15.8123309 C12.6603091,16.3749133 12.8000914,16.8872973 13.0540565,17.3622824 C13.3208213,17.8372676 13.6763724,18.2122559 14.1335094,18.5122465 C13.6001829,18.4996469 13.0922528,18.3622512 12.6351157,18.112259 L12.6351157,18.1498578 C12.6351157,18.9248336 12.8890808,19.6124121 13.3844142,20.1997938 C13.8797476,20.799775 14.5146601,21.1623637 15.2765552,21.312359 C14.9971937,21.3873566 14.7050323,21.4249555 14.4002743,21.4249555 C14.1717058,21.4249555 13.9685337,21.4123559 13.7907582,21.374957 C14.0067301,22.0249367 14.3876776,22.5499203 14.9464007,22.974907 C15.5179236,23.3874941 16.1528362,23.5998875 16.8639382,23.6124871 C15.6703026,24.5374582 14.3114881,25.0000437 12.7751013,25.0000437 C12.5211362,25.0000437 12.2543714,24.9874441 12.0004063,24.9624449 L12,24.9624449 Z" id="Shape" fill="#FFFFFF"></path>
                </g>
            </g>
        </g>
    </g>
</svg>
