<?xml version="1.0" encoding="UTF-8"?>
<svg width="187px" height="222px" viewBox="0 0 187 222" version="1.1" xmlns="http://www.w3.org/2000/svg" xmlns:xlink="http://www.w3.org/1999/xlink">
    <!-- Generator: Sketch 51.2 (57519) - http://www.bohemiancoding.com/sketch -->
    <title>Logo</title>
    <desc>Created with Sketch.</desc>
    <defs></defs>
    <g id="Lock-and-Feeling" stroke="none" stroke-width="1" fill="none" fill-rule="evenodd">
        <g id="UI_Tutorial-Step-byt-Step" transform="translate(-627.000000, -178.000000)">
            <g id="Logo" transform="translate(627.000000, 178.000000)">
                <g id="Group-2" transform="translate(94.000000, 79.000000) scale(-1, 1) translate(-94.000000, -79.000000) translate(15.000000, 0.000000)" fill-rule="nonzero">
                    <path d="M31.820979,31.820979 L31.820979,94.579021 L94.579021,94.579021 L94.579021,31.820979 L31.820979,31.820979 Z M0,0 L126.4,0 L126.4,126.4 L0,126.4 L0,0 Z" id="Rectangle-13" fill="#D43AFF"></path>
                    <polygon id="Rectangle-12" fill="#F9015B" points="79 157.876019 79 79 157.876019 79 157.876019 157.876019"></polygon>
                    <polygon id="Line" fill="#00F0E4" points="129.925162 106.948953 107.708632 129.420841 52.0917348 74.4359443 74.3082652 51.9640557"></polygon>
                    <circle id="Oval" fill="#000000" cx="118.816" cy="118.184" r="15.8"></circle>
                    <circle id="Oval" fill="#FFFFFF" cx="63.2" cy="63.2" r="15.8"></circle>
                </g>
                <path d="M19.8281829,200 L24.8068751,214.77606 L29.0062937,200 L34.1148649,200 L27.3611607,221.352941 L22.3391755,221.352941 L17.1007254,206.006885 L11.9921543,221.352941 L6.84029016,221.352941 L0,200 L5.36832899,200 L9.65433358,214.77606 L14.6330258,200 L19.8281829,200 Z M51.1722973,208.411765 C51.1423394,207.824616 51.0150201,207.258445 50.7903356,206.713235 C50.5656511,206.168026 50.2286294,205.685732 49.7792604,205.26634 C49.3298915,204.846948 48.775678,204.511439 48.1166035,204.259804 C47.457529,204.008169 46.6786345,203.882353 45.7798965,203.882353 C44.9710324,203.882353 44.2445634,204.015158 43.6004679,204.280773 C42.9563723,204.546388 42.4096483,204.895877 41.9602793,205.329248 C41.5109103,205.76262 41.1514205,206.251904 40.8817992,206.797113 C40.6121778,207.342323 40.4623904,207.880535 40.4324324,208.411765 L51.1722973,208.411765 Z M54.7074751,215.254068 C54.4237373,216.188574 54.0123237,217.06466 53.4732219,217.882353 C52.9341201,218.700046 52.2673463,219.415516 51.4728805,220.028786 C50.6784147,220.642056 49.7704674,221.123903 48.7490114,221.474343 C47.7275553,221.824783 46.5926212,222 45.344175,222 C43.925486,222 42.5777518,221.744475 41.3009317,221.233417 C40.0241117,220.722359 38.9033642,219.977685 37.9386558,218.999374 C36.9739473,218.021063 36.2007734,216.823745 35.619111,215.407384 C35.0374485,213.991023 34.7466216,212.377564 34.7466216,210.566959 C34.7466216,208.873166 35.0232618,207.340015 35.5765505,205.967459 C36.1298392,204.594903 36.8746397,203.419488 37.8109744,202.441176 C38.7473091,201.462865 39.8254965,200.703591 41.045569,200.163329 C42.2656415,199.623068 43.5282557,199.352941 44.8334495,199.352941 C46.4223811,199.352941 47.8481421,199.615767 49.1107752,200.141427 C50.3734084,200.667086 51.4374091,201.41176 52.3028094,202.375469 C53.1682096,203.339179 53.8278901,204.499993 54.2818706,205.857947 C54.735851,207.215902 54.9628378,208.741752 54.9628378,210.435544 C54.9628378,210.844391 54.9486512,211.202126 54.9202774,211.508761 C54.8919036,211.815396 54.8635303,211.997914 54.8351565,212.05632 L39.6836344,212.05632 C39.7120082,212.874013 39.8822483,213.618687 40.1943599,214.290363 C40.5064715,214.962039 40.9178851,215.546097 41.4286131,216.042553 C41.9393411,216.53901 42.5280882,216.925948 43.194872,217.203379 C43.8616558,217.480811 44.5780829,217.619524 45.344175,217.619524 C46.8479852,217.619524 48.0041994,217.261789 48.8128521,216.546308 C49.6215048,215.830827 50.1960652,214.94744 50.5365505,213.89612 L54.7074751,215.254068 Z M59.3851351,221.461957 L59.3851351,189 L64.3621457,189 L64.3621457,202.316576 C64.8569387,201.449724 65.6791559,200.687503 66.828822,200.029891 C67.978488,199.372279 69.3828059,199.043478 71.0418177,199.043478 C72.6426186,199.043478 74.0542127,199.334916 75.2766425,199.917799 C76.4990723,200.500682 77.5250247,201.307739 78.3545306,202.338995 C79.1840365,203.37025 79.8097947,204.573363 80.231824,205.94837 C80.6538534,207.323376 80.8648649,208.817927 80.8648649,210.432065 C80.8648649,212.076095 80.6320246,213.608009 80.1663371,215.027853 C79.7006495,216.447697 79.03851,217.673229 78.1798986,218.704484 C77.3212873,219.735739 76.2735061,220.542796 75.0365236,221.125679 C73.7995411,221.708563 72.4097757,222 70.8671858,222 C69.3537013,222 68.0366985,221.686144 66.9161379,221.058424 C65.7955773,220.430703 64.9297026,219.593755 64.3184877,218.547554 L64.3184877,221.461957 L59.3851351,221.461957 Z M75.8108108,210.632065 C75.8108108,208.470962 75.2534076,206.805754 74.1385844,205.63639 C73.0237613,204.467026 71.5806214,203.882353 69.8091216,203.882353 C68.098708,203.882353 66.6708395,204.467026 65.5254732,205.63639 C64.380107,206.805754 63.8074324,208.470962 63.8074324,210.632065 C63.8074324,211.697814 63.9601456,212.652533 64.2655766,213.496251 C64.5710076,214.33997 64.990969,215.057859 65.5254732,215.649942 C66.0599775,216.242025 66.6937373,216.693482 67.4267717,217.004325 C68.1598061,217.315169 68.9539148,217.470588 69.8091216,217.470588 C71.5500783,217.470588 72.9855825,216.863712 74.1156772,215.649942 C75.2457719,214.436172 75.8108108,212.763563 75.8108108,210.632065 Z M82.7601351,215.560701 C82.7601351,214.596991 82.924223,213.750108 83.2524035,213.020025 C83.5805841,212.289942 84.0229078,211.65478 84.5793879,211.114518 C85.1358681,210.574257 85.7993536,210.143514 86.5698645,209.822278 C87.3403755,209.501041 88.1679489,209.267418 89.0526096,209.121402 L94.4033531,208.289111 C95.0026394,208.201501 95.4092918,208.018983 95.6233227,207.741552 C95.8373535,207.46412 95.9443673,207.135588 95.9443673,206.755945 C95.9443673,205.850642 95.6304601,205.084067 95.0026364,204.456195 C94.3748127,203.828324 93.3760172,203.514393 92.00622,203.514393 C90.6934977,203.514393 89.6804337,203.88673 88.9669977,204.631414 C88.2535616,205.376099 87.8397749,206.288689 87.7256252,207.369212 L83.1881946,206.317897 C83.2738069,205.412595 83.5449086,204.536508 84.0015076,203.689612 C84.4581067,202.842716 85.057384,202.098042 85.7993575,201.455569 C86.541331,200.813096 87.4331126,200.302046 88.4747293,199.922403 C89.5163459,199.54276 90.6792292,199.352941 91.9634141,199.352941 C93.5615108,199.352941 94.9241532,199.571963 96.0513821,200.010013 C97.1786111,200.448062 98.0917955,201.03212 98.7909628,201.762203 C99.4901302,202.492286 100.003796,203.339169 100.331977,204.302879 C100.660158,205.266588 100.824245,206.274087 100.824245,207.325407 L100.824245,217.926158 C100.824245,218.889867 100.859917,219.671044 100.93126,220.269712 C101.002604,220.86838 101.052544,221.226115 101.081081,221.342929 L96.4580386,221.342929 C96.4295012,221.284522 96.3866957,221.028997 96.3296208,220.576345 C96.2725459,220.123694 96.2440089,219.47393 96.2440089,218.627034 C95.7588724,219.444727 94.988373,220.211302 93.9324877,220.926783 C92.8766023,221.642265 91.5068257,222 89.8231166,222 C88.7386938,222 87.7613011,221.824783 86.8909092,221.474343 C86.0205172,221.123903 85.2785548,220.649356 84.6649998,220.050688 C84.0514448,219.45202 83.5805841,218.765753 83.2524035,217.991865 C82.924223,217.217977 82.7601351,216.407597 82.7601351,215.560701 Z M90.0706574,217.970588 C90.8077106,217.970588 91.5140427,217.875862 92.1896748,217.686407 C92.865307,217.496952 93.4564762,217.190914 93.9632003,216.768283 C94.4699244,216.345652 94.8768331,215.784582 95.1839386,215.085056 C95.4910441,214.385529 95.6445946,213.511134 95.6445946,212.461844 L95.6445946,211.5 L89.7942638,212.330684 C88.9650789,212.476418 88.2587468,212.77517 87.6752463,213.226948 C87.0917459,213.678725 86.8,214.341808 86.8,215.216216 C86.8,215.94489 87.0763908,216.586113 87.6291807,217.139905 C88.1819707,217.693696 88.9957881,217.970588 90.0706574,217.970588 Z M120.100284,219.013972 C119.579842,219.980045 118.763047,220.719226 117.649878,221.231537 C116.536708,221.743848 115.358501,222 114.11522,222 C112.843027,222 111.715417,221.780441 110.732358,221.341317 C109.749299,220.902193 108.918049,220.294748 108.238582,219.518962 C107.559114,218.743176 107.038679,217.842986 106.67726,216.818363 C106.315842,215.793741 106.135135,214.68131 106.135135,213.481038 L106.135135,200 L111.166059,200 L111.166059,212.558882 C111.166059,213.232206 111.245569,213.861607 111.404594,214.447106 C111.563618,215.032604 111.816607,215.544908 112.163569,215.984032 C112.510531,216.423156 112.951455,216.77445 113.486355,217.037924 C114.021255,217.301399 114.66457,217.433134 115.416321,217.433134 C116.89091,217.433134 117.996834,216.986698 118.734129,216.093812 C119.471423,215.200927 119.840064,214.051903 119.840064,212.646707 L119.840064,200 L124.870988,200 L124.870988,217.477046 C124.870988,218.355294 124.892672,219.123749 124.936043,219.782435 C124.979413,220.441121 125.030011,220.975381 125.087838,221.38523 L120.273765,221.38523 C120.215938,221.15103 120.172568,220.807055 120.143655,220.353293 C120.114741,219.899532 120.100284,219.453096 120.100284,219.013972 Z M135.842108,199.490013 L140.206785,199.490013 L140.206785,204.057724 L135.842108,204.057724 L135.842108,214.080081 C135.842108,215.026149 136.058179,215.713516 136.490327,216.142203 C136.922476,216.57089 137.599498,216.78523 138.521415,216.78523 C138.867134,216.78523 139.212847,216.763057 139.558566,216.71871 C139.904285,216.674363 140.13476,216.637408 140.25,216.607843 L140.25,220.865127 C140.105951,220.924257 139.789046,221.02034 139.299278,221.153381 C138.80951,221.286422 138.103678,221.352941 137.181761,221.352941 C135.222688,221.352941 133.681382,220.791222 132.557796,219.667766 C131.43421,218.544311 130.872425,216.962627 130.872425,214.922668 L130.872425,204.057724 L126.983108,204.057724 L126.983108,199.490013 L128.063474,199.490013 C129.18706,199.490013 130.00813,199.164807 130.526708,198.514385 C131.045286,197.863964 131.304571,197.065731 131.304571,196.119663 L131.304571,192.882353 L135.842108,192.882353 L135.842108,199.490013 Z M149.117939,221.352941 L144.040541,221.352941 L144.040541,189 L149.117939,189 L149.117939,201.690933 C149.847454,200.737618 150.766629,200.044986 151.875492,199.613016 C152.984354,199.181045 154.0932,198.965063 155.202063,198.965063 C156.51519,198.965063 157.660511,199.188493 158.638061,199.635359 C159.615611,200.082225 160.42536,200.700381 161.067333,201.489844 C161.709307,202.279307 162.190779,203.195369 162.511766,204.238057 C162.832752,205.280744 162.993243,206.397892 162.993243,207.589535 L162.993243,221.352941 L157.915845,221.352941 L157.915845,208.483263 C157.915845,207.142665 157.587568,206.003173 156.931005,205.064755 C156.274441,204.126336 155.14371,203.657134 153.538777,203.657134 C152.138109,203.657134 151.065738,204.126336 150.321633,205.064755 C149.577527,206.003173 149.1763,207.172455 149.117939,208.572636 L149.117939,221.352941 Z M173.124696,221.352941 L168.047297,221.352941 L168.047297,199.967712 L172.993384,199.967712 L172.993384,202.822003 C173.693718,201.592456 174.620188,200.706903 175.772822,200.165316 C176.925455,199.62373 178.099957,199.352941 179.296361,199.352941 C180.609488,199.352941 181.747514,199.5725 182.710474,200.011624 C183.673433,200.450748 184.468593,201.058193 185.095976,201.833979 C185.723358,202.609765 186.197536,203.509955 186.518523,204.534578 C186.839509,205.5592 187,206.656994 187,207.827991 L187,221.352941 L181.922602,221.352941 L181.922602,208.706235 C181.922602,207.388863 181.594325,206.269113 180.937761,205.346953 C180.281198,204.424793 179.150467,203.96372 177.545534,203.96372 C176.086504,203.96372 174.984953,204.454067 174.240848,205.434778 C173.496743,206.415488 173.124696,207.608423 173.124696,209.01362 L173.124696,221.352941 Z" id="webauthn" fill="#FFFFFF"></path>
            </g>
        </g>
    </g>
</svg>